<svg width="31" height="30" viewBox="0 0 31 30" fill="none" xmlns="http://www.w3.org/2000/svg">
<g clip-path="url(#clip0)">
<path d="M20.1143 19.2397C19.4035 19.2397 18.8252 18.7392 18.8252 18.124C18.8252 17.5087 19.4035 17.0082 20.1143 17.0082C20.8251 17.0082 21.4033 17.5087 21.4033 18.124C21.4033 18.4475 21.6657 18.7099 21.9892 18.7099C22.3128 18.7099 22.5752 18.4475 22.5752 18.124C22.5752 17.0503 21.7751 16.1474 20.7002 15.9024V15.5977C20.7002 15.2741 20.4378 15.0117 20.1143 15.0117C19.7907 15.0117 19.5283 15.2741 19.5283 15.5977V15.9024C18.4534 16.1474 17.6533 17.0503 17.6533 18.124C17.6533 19.3853 18.7573 20.4115 20.1143 20.4115C20.8251 20.4115 21.4033 20.912 21.4033 21.5273C21.4033 22.1425 20.8251 22.643 20.1143 22.643C19.4035 22.643 18.8252 22.1425 18.8252 21.5273C18.8252 21.2037 18.5628 20.9413 18.2393 20.9413C17.9157 20.9413 17.6533 21.2037 17.6533 21.5273C17.6533 22.601 18.4534 23.5038 19.5283 23.7489V24.002C19.5283 24.3255 19.7907 24.5879 20.1143 24.5879C20.4378 24.5879 20.7002 24.3255 20.7002 24.002V23.7489C21.7751 23.5038 22.5752 22.601 22.5752 21.5273C22.5752 20.2659 21.4712 19.2397 20.1143 19.2397Z" fill="#EA5C10"/>
<path d="M26.5327 15.7544C25.7673 14.5617 24.6889 13.6073 23.4142 12.9945C23.1225 12.8543 22.7724 12.9771 22.6322 13.2688C22.492 13.5604 22.6148 13.9105 22.9064 14.0507C25.1278 15.1185 26.563 17.4001 26.563 19.8632C26.563 20.9172 26.3032 21.9625 25.8118 22.8862C25.6598 23.1718 25.7681 23.5266 26.0538 23.6786C26.1415 23.7253 26.2357 23.7474 26.3285 23.7474C26.5382 23.7474 26.741 23.6346 26.8463 23.4366C27.4276 22.3442 27.7349 21.1085 27.7349 19.8632C27.7349 18.4007 27.3192 16.9799 26.5327 15.7544Z" fill="#EA5C10"/>
<path d="M21.0355 12.2462L20.9961 12.2461C20.6725 12.2461 20.4102 12.5084 20.4102 12.832C20.4102 13.1556 20.6725 13.418 20.9961 13.418L21.03 13.418C21.031 13.418 21.0318 13.418 21.0328 13.418C21.3552 13.418 21.6172 13.1575 21.6187 12.8348C21.6202 12.5112 21.3591 12.2477 21.0355 12.2462Z" fill="#EA5C10"/>
<path d="M17.3284 25.676C15.1071 24.6081 13.6719 22.3265 13.6719 19.8634C13.6719 18.8094 13.9317 17.7642 14.4231 16.8405C14.5751 16.5549 14.4668 16.2 14.1811 16.048C13.8955 15.896 13.5405 16.0044 13.3886 16.2901C12.8073 17.3826 12.5 18.6182 12.5 19.8634C12.5 21.3259 12.9157 22.7467 13.7022 23.9723C14.4676 25.165 15.546 26.1193 16.8207 26.7322C16.9026 26.7715 16.989 26.7901 17.0742 26.7901C17.2924 26.7901 17.5018 26.6677 17.6027 26.4579C17.7428 26.1663 17.6201 25.8162 17.3284 25.676Z" fill="#EA5C10"/>
<path d="M19.2387 26.3085L19.2048 26.3084C18.8797 26.3078 18.6177 26.5679 18.6162 26.8915C18.6147 27.2152 18.8759 27.4787 19.1995 27.4802L19.2387 27.4803C19.5623 27.4803 19.8247 27.218 19.8247 26.8944C19.8247 26.5709 19.5623 26.3085 19.2387 26.3085Z" fill="#EA5C10"/>
<path d="M22.7778 10.2637C22.7065 10.0938 22.6192 9.93367 22.5175 9.78514H24.0429C25.5291 9.78514 26.7382 8.576 26.7382 7.08983C26.7382 5.60366 25.5291 4.39452 24.0429 4.39452H19.3507C19.649 3.96081 19.8242 3.43611 19.8242 2.87109C19.8242 1.38492 18.615 0.175781 17.1289 0.175781H2.77343C1.28726 0.175781 0.078125 1.38492 0.078125 2.87109C0.078125 4.35726 1.28726 5.5664 2.77343 5.5664H7.46561C7.16731 6.00011 6.99217 6.52481 6.99217 7.08983C6.99217 7.65485 7.16725 8.17955 7.46561 8.61327H5.93749C4.45132 8.61327 3.24218 9.8224 3.24218 11.3086C3.24218 12.1621 3.64144 12.9238 4.26259 13.4179C3.64144 13.9121 3.24218 14.6738 3.24218 15.5273C3.24218 16.3808 3.64144 17.1425 4.26259 17.6367C3.64144 18.1309 3.24218 18.8925 3.24218 19.7461C3.24218 20.5996 3.64144 21.3612 4.26259 21.8554C3.64144 22.3496 3.24218 23.1113 3.24218 23.9648C3.24218 25.451 4.45132 26.6601 5.93749 26.6601H12.8427C14.6618 28.6058 17.2497 29.8242 20.1172 29.8242C25.6097 29.8242 30.0781 25.3558 30.0781 19.8633C30.0781 15.292 26.9826 11.4306 22.7778 10.2637ZM24.0429 5.5664C24.883 5.5664 25.5664 6.24983 25.5664 7.08983C25.5664 7.92983 24.883 8.61327 24.0429 8.61327H20.2929H9.68748C8.84742 8.61327 8.16405 7.92983 8.16405 7.08983C8.16405 6.24983 8.84742 5.5664 9.68748 5.5664H24.0429ZM2.77343 4.39452C1.93338 4.39452 1.25 3.71109 1.25 2.87109C1.25 2.03109 1.93338 1.34765 2.77343 1.34765H17.1289C17.9689 1.34765 18.6523 2.03109 18.6523 2.87109C18.6523 3.71109 17.9689 4.39452 17.1289 4.39452H2.77343ZM5.93749 9.78514H20.2929C20.5289 9.78514 20.7549 9.83998 20.9577 9.93818C20.6805 9.91492 20.4003 9.90238 20.1172 9.90238C17.3665 9.90238 14.8728 11.0232 13.0685 12.832H5.93749C5.09749 12.832 4.41405 12.1486 4.41405 11.3086C4.41405 10.4686 5.09749 9.78514 5.93749 9.78514ZM5.93749 14.0039H12.0673C11.4021 14.9152 10.8878 15.943 10.5612 17.0507H5.93749C5.09743 17.0507 4.41405 16.3674 4.41405 15.5273C4.41405 14.6873 5.09743 14.0039 5.93749 14.0039ZM5.93749 18.2226H10.2922C10.2033 18.7566 10.1563 19.3045 10.1563 19.8633C10.1563 20.3406 10.1908 20.8099 10.256 21.2695H5.93749C5.09743 21.2695 4.41405 20.5861 4.41405 19.7461C4.41405 18.906 5.09743 18.2226 5.93749 18.2226ZM5.93749 25.4882C5.09743 25.4882 4.41405 24.8049 4.41405 23.9648C4.41405 23.1247 5.09743 22.4414 5.93749 22.4414H10.4953C10.7909 23.5437 11.2712 24.571 11.9011 25.4882H5.93749ZM20.1172 28.6523C15.2709 28.6523 11.3282 24.7096 11.3282 19.8633C11.3282 15.017 15.2709 11.0743 20.1172 11.0743C24.9635 11.0743 28.9063 15.017 28.9063 19.8633C28.9063 24.7096 24.9635 28.6523 20.1172 28.6523Z" fill="#EA5C10"/>
</g>
<defs>
<clipPath id="clip0">
<rect width="30" height="30" fill="white" transform="translate(0.078125)"/>
</clipPath>
</defs>
</svg>
