<svg width="30" height="31" viewBox="0 0 30 31" fill="none" xmlns="http://www.w3.org/2000/svg">
<g clip-path="url(#clip0)">
<path d="M6.26953 11.2485C6.26953 16.0949 10.2123 20.0376 15.0586 20.0376C19.905 20.0376 23.8477 16.0949 23.8477 11.2485C23.8477 6.4022 19.905 2.45947 15.0586 2.45947C10.2123 2.45947 6.26953 6.4022 6.26953 11.2485ZM15.0586 3.63135C19.2588 3.63135 22.6758 7.04833 22.6758 11.2485C22.6758 15.4488 19.2588 18.8657 15.0586 18.8657C10.8584 18.8657 7.44141 15.4488 7.44141 11.2485C7.44141 7.04833 10.8584 3.63135 15.0586 3.63135Z" fill="#EA5C10"/>
<path d="M9.63177 10.2039L11.903 12.4416L11.3804 15.5867C11.344 15.8058 11.4344 16.0264 11.6141 16.1569C11.7936 16.2873 12.0314 16.305 12.2284 16.2029L15.0581 14.7334L17.8876 16.2029C18.083 16.3043 18.3208 16.2885 18.5019 16.1569C18.6815 16.0264 18.772 15.8058 18.7356 15.5867L18.213 12.4416L20.4842 10.2039C20.6424 10.0482 20.6989 9.8166 20.6302 9.60534C20.5616 9.39431 20.3796 9.24027 20.1601 9.20708L17.0082 8.73261L15.582 5.88051C15.4829 5.68207 15.2799 5.55664 15.0581 5.55664C14.8361 5.55664 14.6333 5.68207 14.534 5.88051L13.1078 8.73261L9.95587 9.20708C9.73637 9.24004 9.55441 9.39431 9.48574 9.60534C9.41708 9.8166 9.47384 10.0482 9.63177 10.2039ZM13.5832 9.84612C13.7718 9.81774 13.9348 9.69941 14.0201 9.52889L15.0581 7.4527L16.0961 9.52889C16.1815 9.69941 16.3444 9.81774 16.533 9.84612L18.8271 10.1915L17.1739 11.82C17.0382 11.9539 16.9759 12.1455 17.007 12.3336L17.3874 14.6227L15.328 13.5533C15.2435 13.5094 15.1508 13.4874 15.0581 13.4874C14.9654 13.4874 14.8727 13.5094 14.788 13.5533L12.7285 14.6227L13.1089 12.3336C13.1403 12.1455 13.078 11.9539 12.9421 11.82L11.2891 10.1915L13.5832 9.84612Z" fill="#EA5C10"/>
<path d="M15.6445 0.701661C15.6445 1.0253 15.3822 1.2876 15.0586 1.2876C14.735 1.2876 14.4727 1.0253 14.4727 0.701661C14.4727 0.378022 14.735 0.115723 15.0586 0.115723C15.3822 0.115723 15.6445 0.378022 15.6445 0.701661Z" fill="#EA5C10"/>
<path d="M12.2971 0.461001C7.36817 1.71917 3.92578 6.15513 3.92578 11.2484C3.92578 14.4118 5.25582 17.3926 7.59064 19.5035L4.06059 25.7248C3.94707 25.9251 3.96126 26.1732 4.09676 26.359C4.23225 26.5451 4.46388 26.6346 4.68933 26.5877L8.6982 25.7552L10.1072 29.7256C10.1837 29.9417 10.3793 30.093 10.6078 30.1134C10.8362 30.1337 11.0552 30.0186 11.1685 29.8193L15.0586 22.9803L18.9485 29.8193C19.0533 30.0035 19.2483 30.1154 19.4575 30.1154C19.4747 30.1154 19.4921 30.1147 19.5092 30.1134C19.7377 30.093 19.9333 29.9415 20.01 29.7256L21.4188 25.7552L25.4277 26.5877C25.6529 26.6344 25.8847 26.5449 26.0202 26.359C26.156 26.1732 26.1699 25.9251 26.0564 25.7248L22.5264 19.5035C24.8612 17.3926 26.1912 14.4118 26.1912 11.2484C26.1912 6.15513 22.7488 1.71917 17.8201 0.461001C17.5063 0.380893 17.1874 0.570178 17.1073 0.883747C17.0272 1.19732 17.2165 1.51638 17.5301 1.59649C21.9397 2.72213 25.0196 6.69117 25.0196 11.2484C25.0196 16.7949 20.5149 21.2094 15.0586 21.2094C9.5984 21.2094 5.09766 16.7913 5.09766 11.2484C5.09766 6.69117 8.17727 2.72213 12.5869 1.59649C12.9005 1.51638 13.0898 1.19732 13.0099 0.883747C12.9298 0.570178 12.6109 0.380893 12.2971 0.461001ZM10.7833 28.1267L9.63181 24.8818C9.53385 24.6058 9.24729 24.4444 8.9605 24.5039L5.71884 25.1771L8.51258 20.2534C10.1415 21.4376 12.0703 22.159 14.076 22.3376L10.7833 28.1267ZM21.1565 24.5039C20.8699 24.4444 20.5831 24.6058 20.4852 24.8818L19.3339 28.1267L16.041 22.3376C18.0469 22.159 19.9755 21.4376 21.6046 20.2534L24.3984 25.1771L21.1565 24.5039Z" fill="#EA5C10"/>
</g>
<defs>
<clipPath id="clip0">
<rect width="30" height="30" fill="white" transform="translate(0 0.115723)"/>
</clipPath>
</defs>
</svg>
