<svg width="31" height="31" viewBox="0 0 31 31" fill="none" xmlns="http://www.w3.org/2000/svg">
<g clip-path="url(#clip0)">
<path d="M19.6598 4.32152L19.791 4.35703C19.9078 4.38861 20.0255 4.40373 20.1416 4.40373C20.7048 4.40373 21.2299 4.04823 21.4215 3.49368L21.9032 2.09946C22.0251 1.74677 21.9948 1.35535 21.8202 1.02552C21.6456 0.695742 21.3388 0.450695 20.9786 0.35331L20.6525 0.265123C20.2922 0.16762 19.9038 0.224634 19.5867 0.421456C19.2697 0.61822 19.0463 0.941082 18.9737 1.30713L18.6869 2.75403C18.5492 3.44821 18.9765 4.13677 19.6598 4.32152ZM19.549 2.92483L19.8358 1.47793C19.8615 1.34803 19.9377 1.23804 20.0502 1.1682C20.1262 1.12097 20.2114 1.09683 20.2982 1.09683C20.3396 1.09683 20.3815 1.10234 20.4229 1.11353L20.749 1.20171C20.8768 1.23629 20.9814 1.31978 21.0434 1.43686C21.1054 1.55387 21.1156 1.68724 21.0724 1.81246L20.5907 3.20668C20.5099 3.44065 20.2594 3.57325 20.0205 3.50862L19.8893 3.47311C19.6503 3.40848 19.5008 3.16765 19.549 2.92483Z" fill="#EA5C10"/>
<path d="M23.4852 6.54199C23.7474 6.80538 24.0952 6.93863 24.4438 6.93863C24.7591 6.93863 25.075 6.8297 25.3289 6.6095L26.4431 5.6429C26.725 5.39838 26.8945 5.04429 26.9082 4.67133C26.9218 4.29843 26.7788 3.93285 26.5155 3.66835L26.2771 3.42893C26.0139 3.16443 25.6501 3.01928 25.276 3.03147C24.903 3.04337 24.5481 3.21118 24.3023 3.49192L23.3305 4.6016C22.8642 5.134 22.89 5.94403 23.3892 6.4456L23.4852 6.54199ZM23.9916 5.18064L24.9635 4.07096C25.0508 3.97129 25.1717 3.9141 25.3041 3.90988C25.3093 3.9097 25.3145 3.90964 25.3197 3.90964C25.4462 3.90964 25.5645 3.95875 25.6542 4.04893L25.8925 4.28835C25.9859 4.38222 26.0347 4.50679 26.0298 4.6391C26.025 4.77147 25.9672 4.89212 25.8672 4.9789L24.7529 5.94549C24.5659 6.10768 24.2827 6.09725 24.1081 5.92193L24.0122 5.8256C23.8377 5.65017 23.8286 5.36686 23.9916 5.18064Z" fill="#EA5C10"/>
<path d="M29.6527 9.30769L29.5661 8.98108C29.4703 8.62042 29.2267 8.3125 28.8978 8.13631C28.5688 7.96011 28.1776 7.92806 27.8243 8.04818L26.4278 8.52327C25.7578 8.75121 25.3752 9.46561 25.5568 10.1497L25.5916 10.2811C25.7508 10.8809 26.2984 11.2859 26.8994 11.2859C26.9837 11.2859 27.0691 11.2779 27.1546 11.2614L28.6029 10.9814C28.9693 10.9106 29.2931 10.6886 29.4914 10.3725C29.6897 10.0565 29.7485 9.66829 29.6527 9.30769ZM28.7468 9.9056C28.6764 10.0178 28.5661 10.0935 28.436 10.1185L26.9877 10.3985C26.7446 10.4454 26.5046 10.2949 26.4411 10.0557L26.4062 9.92423C26.3428 9.68499 26.4766 9.43514 26.7109 9.35539L28.1074 8.8803C28.1577 8.86319 28.2092 8.85469 28.2604 8.85469C28.337 8.85469 28.4129 8.87361 28.4828 8.91106C28.5995 8.97358 28.6826 9.07852 28.7165 9.2065L28.8032 9.53311C28.8372 9.66114 28.8172 9.79339 28.7468 9.9056Z" fill="#EA5C10"/>
<path d="M22.8882 17.9375V14.9841H23.1038C24.0167 14.9841 24.7595 14.2413 24.7595 13.3284V12.3303C24.7595 11.4173 24.0167 10.6746 23.1038 10.6746H15.7903C14.8773 10.6746 14.1345 11.4173 14.1345 12.3303V13.3284C14.1345 14.2413 14.8773 14.9841 15.7903 14.9841H16.0058V17.9375L12.0481 24.9331C11.433 26.0203 11.4415 27.3135 12.0709 28.3926C12.7002 29.4717 13.8216 30.1159 15.0707 30.1159H23.8233C25.0725 30.1159 26.1939 29.4717 26.8232 28.3926C27.4525 27.3136 27.4609 26.0203 26.8459 24.9331L22.8882 17.9375ZM15.0134 13.3284V12.3303C15.0134 11.902 15.3619 11.5535 15.7902 11.5535H23.1036C23.532 11.5535 23.8804 11.902 23.8804 12.3303V13.3284C23.8804 13.7567 23.532 14.1052 23.1036 14.1052H15.7903C15.3619 14.1052 15.0134 13.7567 15.0134 13.3284ZM26.0639 27.9498C25.5939 28.7558 24.7563 29.2369 23.8233 29.2369H15.0707C14.1377 29.2369 13.3001 28.7558 12.83 27.9498C12.36 27.1439 12.3536 26.1779 12.813 25.3659L16.8277 18.2696C16.865 18.2036 16.8846 18.1291 16.8846 18.0532V14.9841H22.0092V18.0532C22.0092 18.129 22.0288 18.2036 22.0662 18.2696L26.0808 25.3659C26.5403 26.1779 26.5339 27.1439 26.0639 27.9498Z" fill="#EA5C10"/>
<path d="M24.6497 24.6233C24.5302 24.412 24.2621 24.3377 24.0508 24.4572C23.8396 24.5767 23.7652 24.8449 23.8848 25.0561L24.55 26.2316C24.7551 26.594 24.6342 26.9093 24.5446 27.0641C24.4543 27.2187 24.2406 27.4783 23.8231 27.4783H15.0707C14.6527 27.4783 14.439 27.2187 14.3493 27.065C14.259 26.9095 14.1384 26.5942 14.3434 26.2315L17.3544 20.9097H21.5394L23.0198 23.5268C23.1393 23.738 23.4075 23.8123 23.6188 23.6929C23.83 23.5733 23.9044 23.3052 23.7849 23.094L22.1782 20.2538C22.1002 20.116 21.9541 20.0308 21.7957 20.0308H17.0981C16.9397 20.0308 16.7935 20.116 16.7155 20.2538L13.5782 25.7989C13.142 26.5707 13.4403 27.2497 13.5894 27.5069C13.7385 27.7626 14.1814 28.3572 15.0706 28.3572H23.823C24.7116 28.3572 25.1545 27.7626 25.3042 27.5059C25.4529 27.2496 25.7514 26.57 25.3147 25.7987L24.6497 24.6233Z" fill="#EA5C10"/>
<path d="M16.6475 9.21595C17.1494 9.21595 17.6513 9.02493 18.0334 8.64283C18.7975 7.87863 18.7975 6.63529 18.0334 5.8712L12.851 0.688831C12.0868 -0.0753136 10.8435 -0.0753136 10.0794 0.688831C9.39292 1.37528 9.32354 2.44822 9.87041 3.2133L4.19326 8.89046C4.02164 9.06208 4.02164 9.34035 4.19326 9.51192C4.36483 9.68361 4.6431 9.68355 4.81473 9.51192L10.4726 3.85411L13.4668 6.84793H8.90429C8.78774 6.84793 8.67594 6.89428 8.5935 6.97667L3.27355 12.2972C2.40475 13.166 2.40475 14.5797 3.27355 15.4485C3.70792 15.8829 4.27846 16.1 4.84924 16.1C5.4199 16.1 5.99086 15.8828 6.42552 15.4485L14.2462 7.62731L14.3801 7.76126L14.8685 8.24965L7.04687 16.0708C5.83529 17.2824 3.86343 17.2823 2.65144 16.0708C1.4398 14.8587 1.4398 12.8869 2.65138 11.6753L3.57192 10.7548C3.74354 10.5832 3.74354 10.3049 3.57192 10.1333C3.40029 9.96164 3.12202 9.9617 2.95045 10.1333L2.02991 11.0539C0.475725 12.6081 0.475667 15.1374 2.02997 16.6923C2.80742 17.4694 3.82839 17.858 4.84936 17.858C5.87033 17.858 6.89124 17.4694 7.66833 16.6923L15.5092 8.85208C15.8483 9.09437 16.2478 9.21595 16.6475 9.21595ZM5.80411 14.8269C5.27752 15.353 4.42114 15.3531 3.89501 14.827C3.36888 14.3009 3.36888 13.4448 3.89501 12.9187L9.08623 7.72687H12.9036L5.80411 14.8269ZM10.7008 1.3103C10.9115 1.09959 11.1883 0.994232 11.4651 0.994232C11.742 0.994232 12.0188 1.09959 12.2295 1.3103L17.4118 6.49267C17.8333 6.91409 17.8333 7.59989 17.4118 8.02131C16.9904 8.44273 16.3046 8.44273 15.8832 8.02131L10.7008 2.83894C10.2794 2.41752 10.2794 1.73177 10.7008 1.3103Z" fill="#EA5C10"/>
</g>
<defs>
<clipPath id="clip0">
<rect width="30" height="30" fill="white" transform="translate(0.28125 0.115723)"/>
</clipPath>
</defs>
</svg>
