<svg width="31" height="31" viewBox="0 0 31 31" fill="none" xmlns="http://www.w3.org/2000/svg">
<g clip-path="url(#clip0)">
<path d="M27.3475 24.9461C27.2808 20.8689 23.1122 19.6644 20.0683 18.7848C19.7132 18.6822 19.3717 18.5835 19.0516 18.4849V16.803C19.6739 16.4129 20.2192 15.911 20.659 15.3254H22.5132C23.4205 15.3254 24.1587 14.5872 24.1587 13.6799V11.6879C24.2687 11.4315 24.3298 11.1493 24.3298 10.853V10.2335C24.3298 9.93748 24.2687 9.65547 24.1587 9.39924V8.37161C24.1587 3.81933 20.4552 0.115723 15.903 0.115723C11.3517 0.115723 7.64894 3.81933 7.64894 8.37167V9.36988C7.64894 9.37773 7.64982 9.38529 7.65011 9.39308C7.53843 9.65101 7.4762 9.93508 7.4762 10.2336V10.8531C7.4762 12.0242 8.42824 12.977 9.59842 12.977H10.0826C10.418 14.5853 11.4054 15.957 12.7544 16.8027V18.4849C12.4343 18.5835 12.0928 18.6822 11.7377 18.7848C8.69384 19.6644 4.52523 20.869 4.45855 24.9461C4.4585 24.9493 4.4585 24.9525 4.4585 24.9557V29.5298C4.4585 29.8534 4.72088 30.1157 5.04444 30.1157H6.78163C7.10519 30.1157 7.36757 29.8534 7.36757 29.5298C7.36757 29.2062 7.10519 28.9438 6.78163 28.9438H5.63032V24.9606C5.65499 23.5381 6.30843 22.4717 7.68661 21.6048C8.59605 21.0328 9.70787 20.6252 10.8038 20.2842L12.2195 23.0425C12.3773 23.3499 12.7813 23.4544 13.0684 23.2607L13.6996 22.8349L14.2416 24.8718L13.313 28.9438H12.0432C11.7196 28.9438 11.4573 29.2061 11.4573 29.5297C11.4573 29.8533 11.7196 30.1157 12.0432 30.1157H26.7616C27.0851 30.1157 27.3475 29.8533 27.3475 29.5297V24.9556C27.3475 24.9525 27.3475 24.9493 27.3475 24.9461ZM19.743 19.9106C19.7816 19.9217 19.8209 19.9331 19.8598 19.9444L18.8469 21.9198L16.9513 20.6416L18.5574 19.5583C18.9306 19.6757 19.3274 19.7905 19.743 19.9106ZM15.9034 21.3484L17.0784 22.1407L16.5105 24.2751H15.2955L14.7279 22.1414L15.9034 21.3484ZM15.9033 19.935L13.9262 18.6018V17.3682C14.545 17.5871 15.2101 17.7072 15.903 17.7072C16.5957 17.7072 17.2609 17.5875 17.8797 17.3687V18.6018L15.9033 19.935ZM20.6766 8.47884C20.6686 8.47374 20.6606 8.46865 20.6526 8.46355C19.4503 7.69819 18.4119 7.0372 16.7849 7.50272C16.7697 7.50706 16.7547 7.51198 16.74 7.51749C16.3951 7.64704 16.0814 7.7678 15.778 7.88458C13.9251 8.59785 12.9134 8.98738 11.1294 8.93722V8.468C11.1294 5.83573 13.2708 3.69423 15.903 3.69423C18.5351 3.69423 20.6766 5.83573 20.6766 8.468V8.47884H20.6766ZM22.9869 13.6799C22.9869 13.9411 22.7744 14.1536 22.5132 14.1536H21.3455C21.5104 13.7798 21.6381 13.3861 21.7234 12.9769H22.2077C22.4828 12.9769 22.7454 12.9237 22.9869 12.8279V13.6799H22.9869ZM23.1579 10.853C23.1579 11.378 22.7317 11.805 22.2076 11.805H21.848C21.8481 11.7905 21.8485 9.2831 21.8485 9.2831H22.2077C22.7317 9.2831 23.158 9.70943 23.158 10.2335V10.853H23.1579ZM9.59842 11.8051C9.07441 11.8051 8.64808 11.378 8.64808 10.8531V10.2336C8.64808 9.70949 9.07435 9.28316 9.59842 9.28316H9.95754C9.95754 9.28316 9.95801 11.7906 9.95813 11.8051H9.59842ZM9.9685 8.11122H9.59836C9.32443 8.11122 9.06281 8.16396 8.82223 8.25888C8.88275 4.40457 12.0356 1.2876 15.903 1.2876C19.7716 1.2876 22.9253 4.40492 22.9854 8.25952C22.7444 8.16419 22.4821 8.11122 22.2076 8.11122H21.8375C21.6523 4.99824 19.0615 2.52235 15.903 2.52235C12.7444 2.52235 10.1537 4.9983 9.9685 8.11122ZM11.1646 12.3316C11.1646 12.331 11.1645 12.3304 11.1644 12.3298C11.1422 12.1433 11.1294 11.9539 11.1294 11.7616V10.109C13.1341 10.1579 14.3299 9.69783 16.199 8.9783C16.4934 8.86498 16.7977 8.74785 17.1292 8.62322C18.236 8.31425 18.8729 8.71978 20.0233 9.45215C20.2229 9.57924 20.4419 9.71851 20.6766 9.86154V11.7616C20.6766 12.6329 20.4408 13.4497 20.0314 14.1536H15.903C15.5795 14.1536 15.3171 14.4159 15.3171 14.7395C15.3171 15.0632 15.5795 15.3255 15.903 15.3255H19.0744C18.2305 16.0773 17.1194 16.5353 15.903 16.5353C13.4638 16.5353 11.4474 14.6959 11.1646 12.3316ZM12.9605 21.9199L11.9465 19.9443C11.9853 19.9331 12.0244 19.9217 12.063 19.9106C12.4787 19.7905 12.8755 19.6756 13.2487 19.5582L14.8555 20.6417L12.9605 21.9199ZM14.515 28.9438L15.3124 25.447H16.4938L17.2924 28.9438H14.515ZM26.1757 28.9438H18.4945L17.5644 24.8717L18.1066 22.8341L18.7394 23.2608C19.0266 23.4544 19.4306 23.3499 19.5883 23.0423L21.0025 20.2844C22.0983 20.6253 23.2101 21.0328 24.1195 21.6048C25.4976 22.4717 26.1511 23.5381 26.1758 24.9606V28.9438H26.1757Z" fill="#EA5C10"/>
<path d="M23.8616 26.0139H20.9087C20.5851 26.0139 20.3228 26.2762 20.3228 26.5999C20.3228 26.9235 20.5851 27.1858 20.9087 27.1858H23.8616C24.1852 27.1858 24.4476 26.9235 24.4476 26.5999C24.4476 26.2762 24.1853 26.0139 23.8616 26.0139Z" fill="#EA5C10"/>
<path d="M9.4126 28.9438C9.08904 28.9438 8.82666 29.2062 8.82666 29.5298C8.82666 29.8534 9.08904 30.1157 9.4126 30.1157H9.41424C9.73779 30.1157 9.9993 29.8534 9.9993 29.5298C9.9993 29.2062 9.73615 28.9438 9.4126 28.9438Z" fill="#EA5C10"/>
</g>
<defs>
<clipPath id="clip0">
<rect width="30" height="30" fill="white" transform="translate(0.902832 0.115723)"/>
</clipPath>
</defs>
</svg>
