<svg width="30" height="28" viewBox="0 0 30 28" fill="none" xmlns="http://www.w3.org/2000/svg">
<path d="M23.6487 15.2313V26.2146H6.275V15.0107H4.62988V26.9225C4.62988 27.4447 5.05311 27.8678 5.57523 27.8678H24.4198C24.942 27.8678 25.3651 27.4446 25.3651 26.9225V15.2313H23.6487Z" fill="#7B549E"/>
<path d="M29.997 13.4556C29.9762 13.1954 29.8486 12.9552 29.6444 12.7923L15.5897 1.57377C15.2444 1.29833 14.755 1.29833 14.4102 1.57377L0.355619 12.7923C0.15142 12.9552 0.0238035 13.1954 0.00300276 13.4556C-0.017798 13.7159 0.0701511 13.9734 0.245639 14.1666L3.05028 17.2548C3.2362 17.4596 3.49272 17.5646 3.75048 17.5646C3.95813 17.5646 4.16737 17.4962 4.34104 17.3572L15.0002 8.81795L25.6586 17.3572C26.0491 17.6686 26.6141 17.625 26.9497 17.2548L29.7543 14.1666C29.9302 13.9734 30.0178 13.7159 29.997 13.4556ZM26.2999 15.8243L15.7309 7.27835C15.5585 7.14001 15.2094 7.04193 15.0002 7.04193C14.7909 7.04193 14.4259 7.18927 14.2533 7.32761L3.64895 15.7511L1.81606 13.5723L15.0002 3.08943L28.3065 13.5723L26.2999 15.8243Z" fill="#7B549E"/>
<path d="M23.8439 0H20.125C19.6029 0 19.1797 0.423222 19.1797 0.94535V6.30251H20.7656V1.73075H23.1681V9.0246L24.7893 9.13856V0.94535C24.7893 0.423164 24.366 0 23.8439 0Z" fill="#7B549E"/>
<path d="M14.9982 15.3262C14.5617 15.3262 14.208 15.7494 14.208 16.2715V22.6371C14.208 23.1593 14.5618 23.5824 14.9982 23.5824C15.4347 23.5824 15.7882 23.1592 15.7885 22.6371V16.2715C15.7885 15.7494 15.4347 15.3262 14.9982 15.3262Z" fill="#7B549E"/>
<path d="M18.1829 18.7144H11.8174C11.2952 18.7144 10.8721 19.0458 10.8721 19.4548C10.8721 19.8637 11.2953 20.1952 11.8174 20.1952H18.183C18.7052 20.1952 19.1283 19.8637 19.1283 19.4548C19.1283 19.0458 18.7051 18.7144 18.1829 18.7144Z" fill="#7B549E"/>
</svg>
