<svg width="50" height="48" viewBox="0 0 50 48" fill="none" xmlns="http://www.w3.org/2000/svg">
<path d="M42.5538 8.82578H35.3149V5.00498C35.3149 2.24521 33.0697 0 30.31 0H19.69C16.9303 0 14.6851 2.24521 14.6851 5.00498V8.82568H7.44619C3.34033 8.82578 0 12.1661 0 16.272V39.612C0 43.7179 3.34033 47.0582 7.44619 47.0582H42.5538C46.6597 47.0582 50 43.7179 50 39.612V16.272C50 12.1661 46.6597 8.82578 42.5538 8.82578ZM17.6147 5.00498C17.6147 3.86064 18.5457 2.92969 19.69 2.92969H30.31C31.4543 2.92969 32.3853 3.86064 32.3853 5.00498V8.82568H17.6147V5.00498ZM2.92969 39.6119V16.272C2.92969 14.2942 4.20801 12.6105 5.98135 12.0007V43.8834C4.20801 43.2733 2.92969 41.5896 2.92969 39.6119ZM8.91104 44.1285V11.7555H41.089V44.1285H8.91104ZM47.0703 39.6119C47.0703 41.5896 45.792 43.2733 44.0187 43.8832V12.0006C45.792 12.6105 47.0703 14.2942 47.0703 16.272V39.6119Z" fill="#7B549E"/>
<rect x="11" y="13.5293" width="28" height="29" fill="#EA5C10"/>
<path d="M33.8257 23.5352H29.4067V19.1162C29.4067 18.3072 28.7509 17.6514 27.9419 17.6514H22.0581C21.2491 17.6514 20.5933 18.3072 20.5933 19.1162V23.5352H16.1743C15.3653 23.5352 14.7095 24.191 14.7095 25V30.8838C14.7095 31.6928 15.3653 32.3486 16.1743 32.3486H20.5933V36.7676C20.5933 37.5766 21.2491 38.2324 22.0581 38.2324H27.9419C28.7509 38.2324 29.4067 37.5766 29.4067 36.7676V32.3486H33.8257C34.6347 32.3486 35.2905 31.6928 35.2905 30.8838V25C35.2905 24.191 34.6347 23.5352 33.8257 23.5352ZM32.3608 29.419H27.9419C27.1329 29.419 26.4771 30.0748 26.4771 30.8838V35.3027H23.5229V30.8838C23.5229 30.0748 22.8671 29.419 22.0581 29.419H17.6392V26.4649H22.0581C22.8671 26.4649 23.5229 25.809 23.5229 25V20.5811H26.4771V25C26.4771 25.809 27.1329 26.4649 27.9419 26.4649H32.3608V29.419Z" fill="#7B549E"/>
</svg>
