<svg width="31" height="31" viewBox="0 0 31 31" fill="none" xmlns="http://www.w3.org/2000/svg">
<g clip-path="url(#clip0)">
<path d="M21.4773 14.8751C22.9071 12.8337 23.6629 10.4373 23.6629 7.94504V2.38824C23.6629 2.11381 23.4722 1.876 23.2044 1.81626L15.6385 0.129627C15.5545 0.111088 15.4675 0.111088 15.3835 0.129627L7.81783 1.81626C7.5498 1.876 7.35938 2.11381 7.35938 2.38824V7.94504C7.35938 10.4373 8.11514 12.8337 9.54497 14.8749C10.9748 16.9163 12.9686 18.4455 15.311 19.2974C15.3755 19.3207 15.4435 19.3326 15.511 19.3326C15.5788 19.3326 15.6467 19.3207 15.7113 19.2974C18.0537 18.4457 20.0475 16.9163 21.4773 14.8751ZM15.511 18.1209C13.4827 17.3388 11.7548 15.9875 10.5049 14.2027C9.21378 12.3595 8.53125 10.1956 8.53125 7.94504V2.8579L15.511 1.30196L22.491 2.8579V7.94504C22.491 10.1954 21.8085 12.3593 20.5174 14.2027C19.2672 15.9875 17.5394 17.3388 15.511 18.1209Z" fill="#EA5C10"/>
<path d="M21.4943 4.12652C21.4943 3.85186 21.3038 3.61428 21.0358 3.55454L15.6388 2.35131C15.5548 2.33277 15.4676 2.33277 15.3836 2.35131L9.98629 3.55454C9.67043 3.62504 9.47153 3.93815 9.54203 4.254C9.6123 4.56986 9.92564 4.76876 10.2413 4.69827L15.511 3.52364L20.3224 4.59618V7.94496C20.3224 9.74809 19.7756 11.4816 18.7413 12.9586C17.9102 14.1451 16.7974 15.1065 15.511 15.7526C14.2247 15.1067 13.1121 14.1451 12.2811 12.9586C11.3864 11.6812 10.8489 10.188 10.7272 8.64076C10.7169 8.51167 10.7096 8.38121 10.7052 8.25258C10.694 7.92894 10.4209 7.67602 10.0994 7.68701C9.77595 7.69822 9.5228 7.96945 9.53402 8.29286C9.53905 8.43866 9.54729 8.58674 9.55874 8.73277C9.69698 10.4885 10.3065 12.1823 11.3211 13.6309C12.3234 15.0616 13.6871 16.2042 15.265 16.9348C15.343 16.9709 15.4273 16.989 15.5113 16.989C15.5953 16.989 15.6793 16.9709 15.7573 16.9348C17.3355 16.2039 18.6991 15.0616 19.7012 13.6309C20.8742 11.9561 21.4945 9.98979 21.4945 7.94496V4.12652H21.4943Z" fill="#EA5C10"/>
<path d="M13.842 10.9867C13.9445 11.108 14.0917 11.1824 14.2503 11.1929C14.2634 11.1938 14.2764 11.1943 14.2895 11.1943C14.4341 11.1943 14.5744 11.1407 14.6824 11.043L18.9305 7.19961C19.1704 6.98263 19.1889 6.61207 18.9719 6.37197C18.7547 6.1321 18.3842 6.11356 18.1443 6.33054L14.3455 9.76721L13.2613 8.48478C13.0526 8.23782 12.6827 8.20669 12.4357 8.41566C12.1885 8.62463 12.1576 8.99427 12.3664 9.24147L13.842 10.9867Z" fill="#EA5C10"/>
<path d="M10.5772 19.5076C10.2684 19.1015 9.81961 18.8433 9.31355 18.7802C8.80749 18.7172 8.30898 18.8571 7.90981 19.1745C7.72305 19.3231 7.57221 19.5011 7.45846 19.6973L7.28634 19.473C7.13344 19.2741 7.04945 19.0264 7.04945 18.7756V13.4896C7.04945 12.4097 6.17077 11.531 5.0909 11.531C4.07512 11.531 3.23695 12.2936 3.14105 13.3046L2.51392 19.9186C2.45876 20.4979 2.62218 21.0726 2.9758 21.5396L7.95628 28.0247V29.5298C7.95628 29.8535 8.21858 30.1158 8.54221 30.1158C8.86563 30.1158 9.12815 29.8535 9.12815 29.5298V27.8256C9.12815 27.6965 9.08535 27.5711 9.00685 27.4688L3.90758 20.8289C3.73386 20.5995 3.65329 20.3155 3.68053 20.0292L4.30789 13.4154C4.34635 13.0091 4.68303 12.7029 5.0909 12.7029C5.52486 12.7029 5.87757 13.0558 5.87757 13.4896V18.7756C5.87757 19.2832 6.04786 19.7843 6.35708 20.1866L7.58366 21.784C7.58549 21.7865 7.58732 21.789 7.58915 21.7916L8.57884 23.0804C8.77613 23.337 9.14395 23.3853 9.40052 23.1882C9.6571 22.9911 9.70539 22.6233 9.50833 22.3665L8.51544 21.0736C8.28541 20.7691 8.34034 20.3297 8.63972 20.0917C8.79009 19.972 8.97801 19.9193 9.16867 19.9429C9.35932 19.9667 9.52847 20.0642 9.64474 20.2171L12.0102 23.3258C12.4758 23.9376 12.7321 24.6979 12.7321 25.4667V29.5298C12.7321 29.8535 12.9944 30.1158 13.3181 30.1158C13.6417 30.1158 13.904 29.8535 13.904 29.5298V25.4667C13.904 24.4432 13.5627 23.4308 12.9429 22.6162L10.5772 19.5076Z" fill="#EA5C10"/>
<path d="M28.3444 19.9186L27.7171 13.3046C27.6212 12.2936 26.7828 11.531 25.7672 11.531C24.6873 11.531 23.8087 12.4097 23.8087 13.4896V18.7756C23.8087 19.0264 23.7244 19.2741 23.5718 19.473L23.3994 19.6973C23.2859 19.5014 23.1351 19.3233 22.9483 19.1745C22.5491 18.8571 22.0506 18.7172 21.5446 18.7802C21.0385 18.8433 20.5897 19.1015 20.2809 19.5076L17.9154 22.6162C17.2956 23.4308 16.9541 24.4432 16.9541 25.467V29.5298C16.9541 29.8535 17.2166 30.1158 17.54 30.1158C17.8637 30.1158 18.126 29.8535 18.126 29.5298V25.4667C18.126 24.6979 18.3823 23.9376 18.8479 23.3258L21.2134 20.2171C21.3299 20.0642 21.499 19.9669 21.6897 19.9429C21.8803 19.9193 22.0682 19.972 22.2186 20.0917C22.5178 20.3297 22.5729 20.7691 22.3427 21.0736L21.35 22.3665C21.1529 22.6233 21.2012 22.9911 21.4578 23.1882C21.7144 23.3853 22.0822 23.337 22.2795 23.0804L23.269 21.7916C23.2708 21.7893 23.2724 21.787 23.2742 21.7847L24.5013 20.1869C24.8103 19.7843 24.9805 19.2832 24.9805 18.7756V13.4896C24.9805 13.0558 25.3335 12.7029 25.7672 12.7029C26.1751 12.7029 26.5118 13.0091 26.5504 13.4154L27.1778 20.0292C27.2048 20.3157 27.1243 20.5995 26.9528 20.8259L21.8513 27.4688C21.7728 27.5711 21.7302 27.6967 21.7302 27.8258V29.5298C21.7302 29.8535 21.9925 30.1158 22.3161 30.1158C22.6398 30.1158 22.9021 29.8535 22.9021 29.5298V28.0247L27.8846 21.5366C28.2359 21.0726 28.3994 20.4979 28.3444 19.9186Z" fill="#EA5C10"/>
<path d="M9.7885 6.68399C9.99473 6.82154 10.274 6.81285 10.4703 6.66156C10.6551 6.51919 10.7418 6.27062 10.6795 6.04495C10.6129 5.80302 10.3964 5.62541 10.1449 5.61167C9.89585 5.59817 9.66079 5.75015 9.56946 5.98155C9.46921 6.23583 9.56191 6.53155 9.7885 6.68399Z" fill="#EA5C10"/>
</g>
<defs>
<clipPath id="clip0">
<rect width="30" height="30" fill="white" transform="translate(0.394043 0.115723)"/>
</clipPath>
</defs>
</svg>
