<svg width="50" height="44" viewBox="0 0 50 44" fill="none" xmlns="http://www.w3.org/2000/svg">
<path d="M36.5234 0.830078C32.3643 0.830078 28.7182 2.68467 25.9794 6.19346C25.6142 6.66143 25.2886 7.12959 25 7.58301C24.7114 7.12949 24.3858 6.66143 24.0206 6.19346C21.2818 2.68467 17.6357 0.830078 13.4766 0.830078C5.61953 0.830078 0 7.40889 0 15.3031C0 24.3298 7.39814 32.837 23.988 42.8871C24.299 43.0755 24.6495 43.1697 25 43.1697C25.3505 43.1697 25.701 43.0756 26.012 42.8872C42.6019 32.8371 50 24.3299 50 15.3032C50 7.41309 44.3851 0.830078 36.5234 0.830078ZM40.9333 26.5429C37.4795 30.3966 32.2603 34.4544 25 38.9279C17.7397 34.4544 12.5205 30.3966 9.0667 26.543C5.59424 22.6684 3.90625 18.9918 3.90625 15.3032C3.90625 9.61924 7.74746 4.73633 13.4766 4.73633C16.3941 4.73633 18.8818 6.00488 20.8706 8.50684C22.4608 10.5077 23.1309 12.5738 23.1355 12.5886C23.3899 13.4045 24.1454 13.9603 25.0001 13.9603C25.8548 13.9603 26.6103 13.4046 26.8646 12.5886C26.8708 12.5688 27.5207 10.5672 29.0587 8.59688C31.0582 6.03516 33.5697 4.73623 36.5234 4.73623C42.2586 4.73623 46.0938 9.62383 46.0938 15.3031C46.0938 18.9917 44.4058 22.6683 40.9333 26.5429Z" fill="#7B549E"/>
<path d="M25.5002 19.0001C25.5002 19.0001 34.7514 6.6989 39 10.5002C48.5 19.0001 25.0002 34.0003 25.0002 34.0003C25.0002 34.0003 0.000118256 18.0002 11.0002 10.5002C16.7395 6.58713 25.5002 19.0001 25.5002 19.0001Z" fill="#EA5C10"/>
</svg>
