<svg width="9" height="12" viewBox="0 0 9 12" fill="none" xmlns="http://www.w3.org/2000/svg">
<path d="M4.5 0C2.01872 0 0 1.87119 0 4.17114C0 7.06194 4.50443 12 4.50443 12C4.50443 12 9 6.91978 9 4.17114C9 1.87119 6.98136 0 4.5 0ZM5.85774 5.39246C5.48336 5.7394 4.99172 5.91292 4.5 5.91292C4.00836 5.91292 3.51656 5.7394 3.14234 5.39246C2.39365 4.69856 2.39365 3.56946 3.14234 2.87549C3.50486 2.53931 3.9871 2.35415 4.5 2.35415C5.0129 2.35415 5.49506 2.53938 5.85774 2.87549C6.60643 3.56946 6.60643 4.69856 5.85774 5.39246Z" fill="white" fill-opacity="0.6"/>
</svg>
