<svg width="7" height="17" viewBox="0 0 7 17" fill="none" xmlns="http://www.w3.org/2000/svg">
<path d="M6.5716 1.80556H6.00559V0.8125C6.00559 0.639906 5.86492 0.5 5.69139 0.5H1.90138C1.72784 0.5 1.58717 0.639906 1.58717 0.8125V1.80556H1.19995C1.02641 1.80556 0.885742 1.94547 0.885742 2.11806V3.58003C0.885742 3.75262 1.02641 3.89253 1.19995 3.89253H1.55277V14.1797C1.55277 15.4591 2.59935 16.5 3.88574 16.5C5.17213 16.5 6.21872 15.4591 6.21872 14.1797V3.89253H6.57154C6.74507 3.89253 6.88574 3.75262 6.88574 3.58003V2.11806C6.88581 1.94547 6.74514 1.80556 6.5716 1.80556ZM2.21558 1.125H5.37721V1.80556H2.21558V1.125ZM3.88577 15.875C2.94586 15.875 2.18121 15.1145 2.18121 14.1797V7.87738H5.59037V14.1797C5.59037 15.1145 4.82572 15.875 3.88577 15.875ZM5.59037 7.25238H2.18121V3.89253H5.59037V7.25238ZM6.25739 3.26753H1.51415V2.43056H6.25739V3.26753Z" fill="#EA5C10"/>
</svg>
