<svg width="13" height="16" viewBox="0 0 13 16" fill="none" xmlns="http://www.w3.org/2000/svg">
<path d="M11.358 2.43661H9.97616V1.83838C9.97616 1.64483 9.75799 1.55686 9.55799 1.55686H8.48528C8.23075 0.853045 7.59438 0.501139 6.8671 0.501139C6.14784 0.474971 5.49361 0.901778 5.24892 1.55686H4.19438C3.99438 1.55686 3.79438 1.64483 3.79438 1.83838V2.43661H2.41253C1.59366 2.44506 0.923744 3.0702 0.885254 3.86181V13.9439C0.885254 14.7181 1.61253 15.2811 2.41253 15.2811H11.358C12.158 15.2811 12.8853 14.7181 12.8853 13.9439V3.86185C12.8468 3.0702 12.1768 2.44506 11.358 2.43661ZM4.52162 2.26067H5.52163C5.69619 2.24006 5.8364 2.11154 5.8671 1.94396C5.97477 1.49017 6.38615 1.16444 6.8671 1.15218C7.3436 1.16615 7.74879 1.4929 7.84891 1.94396C7.88152 2.11733 8.03099 2.2475 8.21255 2.26067H9.24892V3.66829H4.52162V2.26067ZM12.158 13.9439C12.158 14.331 11.758 14.5774 11.358 14.5774H2.41253C2.01253 14.5774 1.61253 14.331 1.61253 13.9439V3.86185C1.64962 3.45892 1.99457 3.14783 2.41253 3.14045H3.79434V4.03781C3.81355 4.23497 3.99 4.38245 4.19435 4.37214H9.55796C9.76607 4.38315 9.94804 4.2377 9.97613 4.03781V3.14042H11.3579C11.7759 3.14783 12.1208 3.45888 12.1579 3.86181V13.9439H12.158Z" fill="#EA5C10"/>
<path d="M5.48493 8.3663C5.34854 8.22718 5.12213 8.21933 4.97583 8.34872L3.81218 9.42202L3.32128 8.92934C3.18489 8.79021 2.95848 8.7824 2.81217 8.91176C2.67133 9.05455 2.67133 9.27922 2.81217 9.42202L3.55761 10.161C3.62213 10.2309 3.71533 10.2696 3.81215 10.2666C3.90806 10.2653 3.99955 10.2273 4.06668 10.161L5.48486 8.85898C5.62546 8.73417 5.63485 8.52267 5.50585 8.38664C5.49923 8.37954 5.49224 8.37277 5.48493 8.3663Z" fill="#EA5C10"/>
<path d="M10.7032 9.12292H6.52135C6.32051 9.12292 6.15771 9.28047 6.15771 9.47483C6.15771 9.66919 6.32051 9.82674 6.52135 9.82674H10.7032C10.904 9.82674 11.0668 9.66919 11.0668 9.47483C11.0668 9.28047 10.904 9.12292 10.7032 9.12292Z" fill="#EA5C10"/>
<path d="M5.48493 5.55112C5.34854 5.41199 5.12213 5.40414 4.97583 5.53354L3.81218 6.60683L3.32128 6.11415C3.18489 5.97503 2.95848 5.96718 2.81217 6.09657C2.67133 6.23937 2.67133 6.46404 2.81217 6.60683L3.55761 7.34584C3.62213 7.41576 3.71533 7.45442 3.81215 7.45142C3.90806 7.45011 3.99955 7.41215 4.06668 7.34584L5.48486 6.0438C5.62546 5.91899 5.63485 5.70749 5.50585 5.57146C5.49923 5.56435 5.49224 5.55758 5.48493 5.55112Z" fill="#EA5C10"/>
<path d="M10.7032 6.3075H6.52135C6.32051 6.3075 6.15771 6.46504 6.15771 6.6594C6.15771 6.85376 6.32051 7.01131 6.52135 7.01131H10.7032C10.904 7.01131 11.0668 6.85376 11.0668 6.6594C11.0668 6.46504 10.904 6.3075 10.7032 6.3075Z" fill="#EA5C10"/>
<path d="M5.48493 11.1814C5.34854 11.0422 5.12213 11.0344 4.97583 11.1638L3.81218 12.2371L3.32128 11.7444C3.18489 11.6053 2.95848 11.5974 2.81217 11.7268C2.67133 11.8696 2.67133 12.0943 2.81217 12.2371L3.55761 12.9761C3.62213 13.046 3.71533 13.0847 3.81215 13.0817C3.90806 13.0803 3.99955 13.0424 4.06668 12.9761L5.48486 11.674C5.62546 11.5492 5.63485 11.3377 5.50585 11.2017C5.49923 11.1946 5.49224 11.1879 5.48493 11.1814Z" fill="#EA5C10"/>
<path d="M10.7032 11.938H6.52135C6.32051 11.938 6.15771 12.0955 6.15771 12.2899C6.15771 12.4843 6.32051 12.6418 6.52135 12.6418H10.7032C10.904 12.6418 11.0668 12.4843 11.0668 12.2899C11.0668 12.0955 10.904 11.938 10.7032 11.938Z" fill="#EA5C10"/>
</svg>
