<svg width="28" height="26" viewBox="0 0 28 26" fill="none" xmlns="http://www.w3.org/2000/svg">
<path d="M6.41734 7.1667H19.2507C19.5731 7.1667 19.834 6.90579 19.834 6.58335C19.834 6.26091 19.5731 6 19.2507 6H6.41734C6.0949 6 5.83398 6.26091 5.83398 6.58335C5.83404 6.90584 6.09495 7.1667 6.41734 7.1667Z" fill="#7B549E"/>
<path d="M13.4173 13H6.41734C6.0949 13 5.83398 13.2609 5.83398 13.5834C5.83398 13.9058 6.0949 14.1667 6.41734 14.1667H13.4173C13.7398 14.1667 14.0007 13.9058 14.0007 13.5834C14.0007 13.2609 13.7398 13 13.4173 13Z" fill="#7B549E"/>
<path d="M25.7669 2.49986C25.7331 2.49986 25.7004 2.50833 25.6667 2.50992V2.49986C25.6667 1.213 24.6197 0.166504 23.3334 0.166504H2.33335C1.04705 0.166504 0 1.213 0 2.49986V25.2499C0 25.4857 0.142406 25.6987 0.360008 25.7887C0.431812 25.8189 0.508102 25.8332 0.583297 25.8332C0.734836 25.8332 0.884078 25.774 0.99575 25.6623L6.6582 19.9999H23.3334C24.6197 19.9999 25.6667 18.9534 25.6667 17.6665V7.99108L27.346 6.31201C27.346 6.31201 27.346 6.31201 27.346 6.31146C27.7619 5.89562 28 5.32025 28 4.73291C28 3.50135 26.9986 2.49986 25.7669 2.49986ZM24.5 17.6665C24.5 18.3096 23.977 18.8331 23.3334 18.8331H6.41665C6.26172 18.8331 6.11357 18.8947 6.0042 19.004L1.16665 23.8417V2.49986C1.16665 1.85673 1.68963 1.33321 2.3333 1.33321H23.3333C23.9771 1.33321 24.5 1.85673 24.5 2.49986V2.89831C24.3893 2.97443 24.2833 3.05816 24.1878 3.15381L17.8408 9.49985H6.41665C6.09421 9.49985 5.8333 9.76077 5.8333 10.0832C5.8333 10.4056 6.09421 10.6666 6.41665 10.6666H16.9049L16.3447 13.4687C16.306 13.6602 16.3664 13.8578 16.5042 13.9957C16.6148 14.1062 16.764 14.1666 16.9167 14.1666C16.9543 14.1666 16.993 14.1626 17.0306 14.1552L19.9462 13.5718C20.0601 13.549 20.1638 13.4938 20.2447 13.4123L24.5 9.15762V17.6665ZM19.5451 12.4627L17.6607 12.8398L18.0378 10.9531L23.3331 5.65778L24.8417 7.16645L19.5451 12.4627ZM26.5211 5.48716L25.6666 6.34165L24.1579 4.83288L25.0126 3.97811C25.2109 3.78042 25.4855 3.6665 25.7669 3.6665C26.3548 3.6665 26.8333 4.14502 26.8333 4.73291C26.8334 5.01318 26.7194 5.28837 26.5211 5.48716Z" fill="#7B549E"/>
</svg>
