<svg width="43" height="43" viewBox="0 0 43 43" fill="none" xmlns="http://www.w3.org/2000/svg">
<g clip-path="url(#clip0)">
<path d="M40.1328 7.16716H14.6911L13.0428 1.71405C12.6526 0.443939 11.3128 -0.275492 10.0385 0.100833L6.38856 1.17583C5.98647 1.29477 5.62188 1.51545 5.33004 1.81653L1.21781 6.07568C0.908598 6.39883 0.695223 6.80151 0.601475 7.23883C0.182225 9.17383 -0.975192 16.1886 1.76964 25.263C4.51447 34.3374 9.36631 39.5791 10.7925 40.9687C11.112 41.2824 11.5121 41.5017 11.9485 41.6023L17.7484 42.9403C17.9278 42.9817 18.1112 43.0026 18.2953 43.0026C18.5291 43.0025 18.7617 42.9689 18.9861 42.903L21.0057 42.3075L22.6332 41.8273C23.2528 41.6488 23.7743 41.2279 24.0795 40.6599C24.3836 40.1014 24.4505 39.4442 24.2651 38.8359L23.3571 35.8338H40.1328C41.716 35.8338 42.9995 34.5504 42.9995 32.9672V10.0338C42.9995 8.45061 41.716 7.16716 40.1328 7.16716ZM29.1145 21.5001L41.2082 10.3022C41.2067 10.1392 41.265 10.455 41.2082 10.3022V32.698C41.2062 32.8516 41.2082 33.1459 41.2082 33.1459L29.1145 21.5001ZM38.9686 8.95845C39.0499 8.95963 40.2325 8.94342 40.3124 8.95845L25.3695 22.5526C24.8197 23.0624 23.9699 23.0624 23.4201 22.5526L13.1001 12.9987L13.8605 12.7744C14.4789 12.5946 14.9993 12.174 15.3046 11.6069C15.6083 11.0488 15.6747 10.392 15.4888 9.78443L15.2291 8.95845H38.9686ZM10.7499 29.1147C9.27032 27.3034 8.69576 25.6477 8.04047 23.4025C7.11485 20.5736 6.98862 17.5439 7.67569 14.6477C7.69049 14.6087 7.72337 14.5793 7.76384 14.5689L11.1978 13.4376L19.7082 21.5001L10.7499 29.1147ZM22.8138 39.9776C22.6896 40.2079 22.1994 40.2404 21.9478 40.3126L21.311 40.4506L19.5308 34.9559C19.4603 34.7065 19.2607 34.5145 19.0087 34.4539C18.7567 34.3933 18.4916 34.4735 18.3154 34.6636C18.1392 34.8538 18.0795 35.1242 18.1591 35.3709L19.7082 40.7605L18.7228 41.0532C18.5564 41.1027 18.3282 41.0923 18.1591 41.0532L12.5416 39.8647C12.3618 39.8227 12.2251 39.5463 12.0936 39.4168C10.732 38.0874 6.22558 33.3817 3.58323 24.6355C0.940882 15.8893 1.96799 10.289 2.36861 8.4414C2.40714 8.26409 2.85601 7.64867 2.9815 7.51761L6.71865 3.58345C6.83715 3.46062 7.00313 3.18468 7.16656 3.13553H8.0624L9.40615 8.06261C9.49745 8.36507 10.2393 8.44129 10.5553 8.4414C10.6255 8.44175 10.6953 8.43136 10.7624 8.41058C11.1411 8.29609 11.3554 7.89639 11.2411 7.51761L9.85406 2.68761H10.7499C11.2701 2.53081 11.4834 3.06495 11.6457 3.58345L13.8605 10.2852C13.9353 10.5272 13.9812 10.5242 13.8605 10.7469C13.7359 10.9771 13.6888 11.1251 13.4374 11.198L12.5017 11.6786L12.2201 10.7469C12.0984 10.3777 11.7044 10.1728 11.3322 10.2852C10.96 10.3976 10.7454 10.7862 10.8484 11.1611L11.1272 12.0842L7.35892 13.195C6.84231 13.346 6.43969 13.7521 6.29324 14.27C5.53728 17.4253 5.66749 20.728 6.66949 23.8139C7.54948 26.9461 9.27176 29.7769 11.6489 31.9982C12.0531 32.3547 12.6129 32.4767 13.1288 32.3207L16.9064 31.207L17.188 32.1387C17.2585 32.3881 17.4581 32.5801 17.7101 32.6407C17.9621 32.7013 18.2272 32.6211 18.4034 32.431C18.5795 32.2408 18.6393 31.9704 18.5597 31.7237L18.2809 30.8007L19.2219 30.5233C19.7422 30.3677 20.291 30.6584 20.4546 31.1762L22.8912 39.2466C22.9666 39.4902 22.94 39.754 22.8174 39.9776H22.8138ZM22.9235 34.4005L21.8256 30.7663C21.4348 29.4938 20.0916 28.7739 18.8156 29.1531L12.7239 30.949C12.6801 30.9621 12.6328 30.9536 12.5963 30.9261C12.496 30.8379 12.2262 30.5831 12.0936 30.4584L21.052 22.8439L22.3957 24.1876C23.4974 25.2034 25.3254 25.2034 26.427 24.1876L27.7707 22.8439L39.7468 34.4005C38.7518 34.4313 39.0624 34.3994 38.9686 34.4005H22.9235Z" fill="#7B549E"/>
<path d="M18.6332 11.4666H30.0998C30.4956 11.4666 30.8165 11.1457 30.8165 10.7499C30.8165 10.3541 30.4956 10.0333 30.0998 10.0333H18.6332C18.2374 10.0333 17.9165 10.3541 17.9165 10.7499C17.9165 11.1457 18.2374 11.4666 18.6332 11.4666Z" fill="#7B549E"/>
<path d="M39.4169 15.7666C39.0211 15.7666 38.7002 16.0875 38.7002 16.4833V26.5166C38.7002 26.9124 39.0211 27.2333 39.4169 27.2333C39.8127 27.2333 40.1335 26.9124 40.1335 26.5166V16.4833C40.1335 16.0875 39.8127 15.7666 39.4169 15.7666Z" fill="#7B549E"/>
</g>
<defs>
<clipPath id="clip0">
<rect width="43" height="43" fill="white"/>
</clipPath>
</defs>
</svg>
