<svg width="50" height="48" viewBox="0 0 50 48" fill="none" xmlns="http://www.w3.org/2000/svg">
<path d="M42.5538 9.29648H35.3149V5.47568C35.3149 2.71592 33.0697 0.470703 30.31 0.470703H19.69C16.9303 0.470703 14.6851 2.71592 14.6851 5.47568V9.29639H7.44619C3.34033 9.29648 0 12.6368 0 16.7427V40.0827C0 44.1886 3.34033 47.5289 7.44619 47.5289H42.5538C46.6597 47.5289 50 44.1886 50 40.0827V16.7427C50 12.6368 46.6597 9.29648 42.5538 9.29648ZM17.6147 5.47568C17.6147 4.33135 18.5457 3.40039 19.69 3.40039H30.31C31.4543 3.40039 32.3853 4.33135 32.3853 5.47568V9.29639H17.6147V5.47568ZM2.92969 40.0826V16.7427C2.92969 14.7649 4.20801 13.0813 5.98135 12.4714V44.3541C4.20801 43.744 2.92969 42.0603 2.92969 40.0826ZM8.91104 44.5992V12.2262H41.089V44.5992H8.91104ZM47.0703 40.0826C47.0703 42.0603 45.792 43.744 44.0187 44.3539V12.4713C45.792 13.0812 47.0703 14.7649 47.0703 16.7427V40.0826Z" fill="white"/>
<rect x="11" y="14" width="28" height="29" fill="#EA5C10"/>
<path d="M33.8252 24.0059H29.4062V19.5869C29.4062 18.7779 28.7504 18.1221 27.9414 18.1221H22.0576C21.2486 18.1221 20.5928 18.7779 20.5928 19.5869V24.0059H16.1738C15.3648 24.0059 14.709 24.6617 14.709 25.4707V31.3545C14.709 32.1635 15.3648 32.8193 16.1738 32.8193H20.5928V37.2383C20.5928 38.0473 21.2486 38.7031 22.0576 38.7031H27.9414C28.7504 38.7031 29.4062 38.0473 29.4062 37.2383V32.8193H33.8252C34.6342 32.8193 35.29 32.1635 35.29 31.3545V25.4707C35.29 24.6617 34.6342 24.0059 33.8252 24.0059ZM32.3604 29.8897H27.9414C27.1324 29.8897 26.4766 30.5455 26.4766 31.3545V35.7735H23.5225V31.3545C23.5225 30.5455 22.8666 29.8897 22.0576 29.8897H17.6387V26.9356H22.0576C22.8666 26.9356 23.5225 26.2797 23.5225 25.4707V21.0518H26.4766V25.4707C26.4766 26.2797 27.1324 26.9356 27.9414 26.9356H32.3604V29.8897Z" fill="white"/>
</svg>
