<svg width="50" height="50" viewBox="0 0 50 50" fill="none" xmlns="http://www.w3.org/2000/svg">
<path d="M36.5234 3.83008C32.3643 3.83008 28.7182 5.68467 25.9794 9.19346C25.6142 9.66143 25.2886 10.1296 25 10.583C24.7114 10.1295 24.3858 9.66143 24.0206 9.19346C21.2818 5.68467 17.6357 3.83008 13.4766 3.83008C5.61953 3.83008 0 10.4089 0 18.3031C0 27.3298 7.39814 35.837 23.988 45.8871C24.299 46.0755 24.6495 46.1697 25 46.1697C25.3505 46.1697 25.701 46.0756 26.012 45.8872C42.6019 35.8371 50 27.3299 50 18.3032C50 10.4131 44.3851 3.83008 36.5234 3.83008ZM40.9333 29.5429C37.4795 33.3966 32.2603 37.4544 25 41.9279C17.7397 37.4544 12.5205 33.3966 9.0667 29.543C5.59424 25.6684 3.90625 21.9918 3.90625 18.3032C3.90625 12.6192 7.74746 7.73633 13.4766 7.73633C16.3941 7.73633 18.8818 9.00488 20.8706 11.5068C22.4608 13.5077 23.1309 15.5738 23.1355 15.5886C23.3899 16.4045 24.1454 16.9603 25.0001 16.9603C25.8548 16.9603 26.6103 16.4046 26.8646 15.5886C26.8708 15.5688 27.5207 13.5672 29.0587 11.5969C31.0582 9.03516 33.5697 7.73623 36.5234 7.73623C42.2586 7.73623 46.0938 12.6238 46.0938 18.3031C46.0938 21.9917 44.4058 25.6683 40.9333 29.5429Z" fill="white"/>
<path d="M25.4997 22.0001C25.4997 22.0001 34.7509 9.6989 38.9995 13.5002C48.4995 22.0001 24.9997 37.0003 24.9997 37.0003C24.9997 37.0003 -0.000370026 21.0002 10.9997 13.5002C16.739 9.58713 25.4997 22.0001 25.4997 22.0001Z" fill="#EA5C10"/>
</svg>
