<svg width="50" height="50" viewBox="0 0 50 50" fill="none" xmlns="http://www.w3.org/2000/svg">
<g clip-path="url(#clip0)">
<path d="M44.508 33.6556L34.0448 28.7468C35.0838 27.4789 35.8497 26.0053 36.2832 24.4238C38.2764 23.9766 39.7705 22.1934 39.7705 20.0674C39.7705 18.0918 38.4805 16.4111 36.6982 15.8252V11.6982C36.6982 5.24805 31.4502 0 25 0C18.5498 0 13.3018 5.24805 13.3018 11.6982V15.8252C11.5195 16.4111 10.2295 18.0918 10.2295 20.0674C10.2295 22.1934 11.7236 23.9766 13.7168 24.4238C14.1502 26.0053 14.9162 27.479 15.9552 28.7468L5.49199 33.6556C2.15576 35.2208 0 38.6133 0 42.2984V50H50V42.2984C50 38.6133 47.8442 35.2208 44.508 33.6556ZM16.2314 11.6982C16.2314 6.86328 20.165 2.92969 25 2.92969C29.835 2.92969 33.7686 6.86328 33.7686 11.6982V14.3496C30.2305 13.0195 28.7773 10.6094 28.7129 10.499L27.6504 8.57422L26.2852 10.3223C26.2549 10.3613 23.376 13.9531 16.2314 15.5371V11.6982ZM13.1592 20.0674C13.1592 19.2207 13.8477 18.5322 14.6943 18.5322H16.2314C22.0469 17.3672 25.5713 14.9492 27.2969 13.4375C28.4463 14.7061 30.5234 16.4707 33.7686 17.4375V18.5322H35.3057C36.1523 18.5322 36.8408 19.2207 36.8408 20.0674C36.8408 20.9141 36.1523 21.6025 35.3057 21.6025H33.8496L33.6416 22.8203C32.9219 27.0391 29.2871 30.1006 25 30.1006C20.7129 30.1006 17.0781 27.0391 16.3584 22.8203L16.1504 21.6025H14.6943C13.8477 21.6025 13.1592 20.9141 13.1592 20.0674ZM28.6815 32.435L25 38.0874L21.3186 32.435C22.4974 32.8257 23.7398 33.0303 25 33.0303C26.2602 33.0303 27.5026 32.8258 28.6815 32.435ZM13.1185 47.0703C12.0415 47.0703 11.1653 46.1941 11.1653 45.1172C11.1653 44.0402 12.0415 43.1641 13.1185 43.1641C14.1954 43.1641 15.0716 44.0402 15.0716 45.1172C15.0716 46.1941 14.1954 47.0703 13.1185 47.0703ZM2.92969 42.2984C2.92969 39.7441 4.42383 37.3928 6.73633 36.3079L11.6537 34.001V40.4592C9.6748 41.0828 8.23574 42.935 8.23574 45.1172C8.23574 45.8114 8.38232 46.4718 8.64463 47.0703H2.92969V42.2984ZM17.5924 47.0703C17.8547 46.4718 18.0013 45.8114 18.0013 45.1172C18.0013 42.935 16.5622 41.0828 14.5833 40.4592V32.6266L17.1597 31.4179L25 43.4555L32.8403 31.4178L35.2213 32.5348V38.4271C32.8683 38.9868 31.1124 41.1049 31.1124 43.6268V47.0703H17.5924ZM34.0421 47.0703V43.6268C34.0421 42.2946 35.1258 41.2109 36.4579 41.2109H36.9144C38.2465 41.2109 39.3303 42.2947 39.3303 43.6268V47.0703H34.0421ZM47.0703 47.0703H42.26V43.6268C42.26 41.105 40.5041 38.9868 38.151 38.4271V33.9092L43.2637 36.3077C45.5762 37.3928 47.0703 39.7441 47.0703 42.2984V47.0703Z" fill="white"/>
<path d="M18 20L27.5 16L32.5 19C32.5 19 30.6777 29.0495 25 28.5C19 27.9194 18 20 18 20Z" fill="#EA5C10"/>
</g>
<defs>
<clipPath id="clip0">
<rect width="50" height="50" fill="white"/>
</clipPath>
</defs>
</svg>
