<svg width="31" height="31" viewBox="0 0 31 31" fill="none" xmlns="http://www.w3.org/2000/svg">
<g clip-path="url(#clip0)">
<path d="M27.347 24.9461C27.2803 20.8689 23.1117 19.6644 20.0679 18.7848C19.7127 18.6822 19.3712 18.5835 19.0511 18.4849V16.803C19.6734 16.4129 20.2187 15.911 20.6585 15.3254H22.5127C23.42 15.3254 24.1582 14.5872 24.1582 13.6799V11.6879C24.2682 11.4315 24.3293 11.1493 24.3293 10.853V10.2335C24.3293 9.93748 24.2682 9.65547 24.1582 9.39924V8.37161C24.1582 3.81933 20.4548 0.115723 15.9025 0.115723C11.3512 0.115723 7.64845 3.81933 7.64845 8.37167V9.36988C7.64845 9.37773 7.64933 9.38529 7.64962 9.39308C7.53794 9.65101 7.47572 9.93508 7.47572 10.2336V10.8531C7.47572 12.0242 8.42775 12.977 9.59793 12.977H10.0822C10.4175 14.5853 11.4049 15.957 12.7539 16.8027V18.4849C12.4338 18.5835 12.0923 18.6822 11.7372 18.7848C8.69336 19.6644 4.52475 20.869 4.45807 24.9461C4.45801 24.9493 4.45801 24.9525 4.45801 24.9557V29.5298C4.45801 29.8534 4.72039 30.1157 5.04395 30.1157H6.78114C7.1047 30.1157 7.36708 29.8534 7.36708 29.5298C7.36708 29.2062 7.1047 28.9438 6.78114 28.9438H5.62983V24.9606C5.6545 23.5381 6.30794 22.4717 7.68613 21.6048C8.59556 21.0328 9.70739 20.6252 10.8033 20.2842L12.219 23.0425C12.3768 23.3499 12.7808 23.4544 13.0679 23.2607L13.6992 22.8349L14.2411 24.8718L13.3126 28.9438H12.0427C11.7192 28.9438 11.4568 29.2061 11.4568 29.5297C11.4568 29.8533 11.7192 30.1157 12.0427 30.1157H26.7611C27.0847 30.1157 27.347 29.8533 27.347 29.5297V24.9556C27.347 24.9525 27.347 24.9493 27.347 24.9461ZM19.7425 19.9106C19.7812 19.9217 19.8204 19.9331 19.8593 19.9444L18.8464 21.9198L16.9508 20.6416L18.557 19.5583C18.9301 19.6757 19.3269 19.7905 19.7425 19.9106ZM15.9029 21.3484L17.0779 22.1407L16.51 24.2751H15.295L14.7274 22.1414L15.9029 21.3484ZM15.9028 19.935L13.9257 18.6018V17.3682C14.5446 17.5871 15.2097 17.7072 15.9025 17.7072C16.5952 17.7072 17.2604 17.5875 17.8792 17.3687V18.6018L15.9028 19.935ZM20.6761 8.47884C20.6681 8.47374 20.6601 8.46865 20.6521 8.46355C19.4498 7.69819 18.4114 7.0372 16.7844 7.50272C16.7693 7.50706 16.7542 7.51198 16.7395 7.51749C16.3946 7.64704 16.0809 7.7678 15.7775 7.88458C13.9246 8.59785 12.9129 8.98738 11.1289 8.93722V8.468C11.1289 5.83573 13.2703 3.69423 15.9025 3.69423C18.5346 3.69423 20.6761 5.83573 20.6761 8.468V8.47884H20.6761ZM22.9864 13.6799C22.9864 13.9411 22.7739 14.1536 22.5127 14.1536H21.345C21.5099 13.7798 21.6376 13.3861 21.723 12.9769H22.2072C22.4823 12.9769 22.745 12.9237 22.9864 12.8279V13.6799H22.9864ZM23.1575 10.853C23.1575 11.378 22.7312 11.805 22.2071 11.805H21.8475C21.8476 11.7905 21.8481 9.2831 21.8481 9.2831H22.2072C22.7312 9.2831 23.1575 9.70943 23.1575 10.2335V10.853H23.1575ZM9.59793 11.8051C9.07393 11.8051 8.6476 11.378 8.6476 10.8531V10.2336C8.6476 9.70949 9.07387 9.28316 9.59793 9.28316H9.95705C9.95705 9.28316 9.95752 11.7906 9.95764 11.8051H9.59793ZM9.96801 8.11122H9.59787C9.32395 8.11122 9.06232 8.16396 8.82174 8.25888C8.88226 4.40457 12.0351 1.2876 15.9025 1.2876C19.7711 1.2876 22.9248 4.40492 22.9849 8.25952C22.7439 8.16419 22.4816 8.11122 22.2071 8.11122H21.837C21.6518 4.99824 19.061 2.52235 15.9025 2.52235C12.744 2.52235 10.1532 4.9983 9.96801 8.11122ZM11.1641 12.3316C11.1641 12.331 11.164 12.3304 11.1639 12.3298C11.1417 12.1433 11.1289 11.9539 11.1289 11.7616V10.109C13.1336 10.1579 14.3295 9.69783 16.1985 8.9783C16.4929 8.86498 16.7972 8.74785 17.1287 8.62322C18.2355 8.31425 18.8724 8.71978 20.0228 9.45215C20.2224 9.57924 20.4414 9.71851 20.6761 9.86154V11.7616C20.6761 12.6329 20.4403 13.4497 20.0309 14.1536H15.9025C15.579 14.1536 15.3166 14.4159 15.3166 14.7395C15.3166 15.0632 15.579 15.3255 15.9025 15.3255H19.0739C18.23 16.0773 17.1189 16.5353 15.9025 16.5353C13.4633 16.5353 11.4469 14.6959 11.1641 12.3316ZM12.9601 21.9199L11.946 19.9443C11.9848 19.9331 12.024 19.9217 12.0625 19.9106C12.4782 19.7905 12.875 19.6756 13.2482 19.5582L14.855 20.6417L12.9601 21.9199ZM14.5146 28.9438L15.312 25.447H16.4933L17.2919 28.9438H14.5146ZM26.1752 28.9438H18.494L17.564 24.8717L18.1061 22.8341L18.7389 23.2608C19.0261 23.4544 19.4301 23.3499 19.5879 23.0423L21.002 20.2844C22.0978 20.6253 23.2096 21.0328 24.119 21.6048C25.4971 22.4717 26.1506 23.5381 26.1753 24.9606V28.9438H26.1752Z" fill="#EA5C10"/>
<path d="M23.8612 26.0139H20.9082C20.5846 26.0139 20.3223 26.2762 20.3223 26.5999C20.3223 26.9235 20.5846 27.1858 20.9082 27.1858H23.8612C24.1847 27.1858 24.4471 26.9235 24.4471 26.5999C24.4471 26.2762 24.1848 26.0139 23.8612 26.0139Z" fill="#EA5C10"/>
<path d="M9.41211 28.9438C9.08855 28.9438 8.82617 29.2062 8.82617 29.5298C8.82617 29.8534 9.08855 30.1157 9.41211 30.1157H9.41375C9.7373 30.1157 9.99881 29.8534 9.99881 29.5298C9.99881 29.2062 9.73566 28.9438 9.41211 28.9438Z" fill="#EA5C10"/>
</g>
<defs>
<clipPath id="clip0">
<rect width="30" height="30" fill="white" transform="translate(0.902344 0.115723)"/>
</clipPath>
</defs>
</svg>
