<svg width="31" height="31" viewBox="0 0 31 31" fill="none" xmlns="http://www.w3.org/2000/svg">
<g clip-path="url(#clip0)">
<path d="M21.4783 14.8751C22.9081 12.8337 23.6639 10.4373 23.6639 7.94504V2.38824C23.6639 2.11381 23.4732 1.876 23.2054 1.81626L15.6395 0.129627C15.5555 0.111088 15.4685 0.111088 15.3845 0.129627L7.8188 1.81626C7.55078 1.876 7.36035 2.11381 7.36035 2.38824V7.94504C7.36035 10.4373 8.11612 12.8337 9.54595 14.8749C10.9758 16.9163 12.9696 18.4455 15.3119 19.2974C15.3765 19.3207 15.4445 19.3326 15.512 19.3326C15.5797 19.3326 15.6477 19.3207 15.7123 19.2974C18.0546 18.4457 20.0484 16.9163 21.4783 14.8751ZM15.512 18.1209C13.4836 17.3388 11.7558 15.9875 10.5059 14.2027C9.21475 12.3595 8.53223 10.1956 8.53223 7.94504V2.8579L15.512 1.30196L22.492 2.8579V7.94504C22.492 10.1954 21.8095 12.3593 20.5183 14.2027C19.2682 15.9875 17.5403 17.3388 15.512 18.1209Z" fill="#EA5C10"/>
<path d="M21.4947 4.12652C21.4947 3.85186 21.3043 3.61428 21.0363 3.55454L15.6393 2.35131C15.5553 2.33277 15.468 2.33277 15.384 2.35131L9.98678 3.55454C9.67092 3.62504 9.47202 3.93815 9.54252 4.254C9.61278 4.56986 9.92612 4.76876 10.2418 4.69827L15.5115 3.52364L20.3229 4.59618V7.94496C20.3229 9.74809 19.7761 11.4816 18.7418 12.9586C17.9107 14.1451 16.7979 15.1065 15.5115 15.7526C14.2252 15.1067 13.1126 14.1451 12.2816 12.9586C11.3869 11.6812 10.8494 10.188 10.7277 8.64076C10.7174 8.51167 10.71 8.38121 10.7057 8.25258C10.6945 7.92894 10.4214 7.67602 10.0998 7.68701C9.77644 7.69822 9.52329 7.96945 9.53451 8.29286C9.53954 8.43866 9.54778 8.58674 9.55923 8.73277C9.69747 10.4885 10.307 12.1823 11.3216 13.6309C12.3239 15.0616 13.6876 16.2042 15.2655 16.9348C15.3435 16.9709 15.4278 16.989 15.5118 16.989C15.5958 16.989 15.6798 16.9709 15.7578 16.9348C17.336 16.2039 18.6996 15.0616 19.7017 13.6309C20.8747 11.9561 21.495 9.98979 21.495 7.94496V4.12652H21.4947Z" fill="#EA5C10"/>
<path d="M13.8425 10.9867C13.945 11.108 14.0922 11.1824 14.2508 11.1929C14.2639 11.1938 14.2769 11.1943 14.2899 11.1943C14.4346 11.1943 14.5749 11.1407 14.6829 11.043L18.931 7.19961C19.1709 6.98263 19.1894 6.61207 18.9724 6.37197C18.7552 6.1321 18.3846 6.11356 18.1448 6.33054L14.346 9.76721L13.2618 8.48478C13.0531 8.23782 12.6832 8.20669 12.4362 8.41566C12.189 8.62463 12.1581 8.99427 12.3669 9.24147L13.8425 10.9867Z" fill="#EA5C10"/>
<path d="M10.5777 19.5076C10.2689 19.1015 9.82009 18.8433 9.31404 18.7802C8.80798 18.7172 8.30947 18.8571 7.9103 19.1745C7.72353 19.3231 7.5727 19.5011 7.45895 19.6973L7.28683 19.473C7.13393 19.2741 7.04993 19.0264 7.04993 18.7756V13.4896C7.04993 12.4097 6.17125 11.531 5.09139 11.531C4.07561 11.531 3.23744 12.2936 3.14154 13.3046L2.5144 19.9186C2.45924 20.4979 2.62267 21.0726 2.97629 21.5396L7.95676 28.0247V29.5298C7.95676 29.8535 8.21906 30.1158 8.5427 30.1158C8.86611 30.1158 9.12864 29.8535 9.12864 29.5298V27.8256C9.12864 27.6965 9.08584 27.5711 9.00733 27.4688L3.90807 20.8289C3.73435 20.5995 3.65378 20.3155 3.68102 20.0292L4.30838 13.4154C4.34683 13.0091 4.68352 12.7029 5.09139 12.7029C5.52535 12.7029 5.87806 13.0558 5.87806 13.4896V18.7756C5.87806 19.2832 6.04835 19.7843 6.35756 20.1866L7.58414 21.784C7.58598 21.7865 7.58781 21.789 7.58964 21.7916L8.57932 23.0804C8.77662 23.337 9.14443 23.3853 9.40101 23.1882C9.65759 22.9911 9.70588 22.6233 9.50881 22.3665L8.51592 21.0736C8.2859 20.7691 8.34083 20.3297 8.64021 20.0917C8.79058 19.972 8.97849 19.9193 9.16915 19.9429C9.35981 19.9667 9.52896 20.0642 9.64523 20.2171L12.0107 23.3258C12.4763 23.9376 12.7326 24.6979 12.7326 25.4667V29.5298C12.7326 29.8535 12.9949 30.1158 13.3186 30.1158C13.6422 30.1158 13.9045 29.8535 13.9045 29.5298V25.4667C13.9045 24.4432 13.5632 23.4308 12.9434 22.6162L10.5777 19.5076Z" fill="#EA5C10"/>
<path d="M28.3454 19.9186L27.718 13.3046C27.6221 12.2936 26.7837 11.531 25.7682 11.531C24.6883 11.531 23.8096 12.4097 23.8096 13.4896V18.7756C23.8096 19.0264 23.7254 19.2741 23.5728 19.473L23.4004 19.6973C23.2869 19.5014 23.136 19.3233 22.9493 19.1745C22.5501 18.8571 22.0516 18.7172 21.5455 18.7802C21.0395 18.8433 20.5906 19.1015 20.2819 19.5076L17.9164 22.6162C17.2966 23.4308 16.9551 24.4432 16.9551 25.467V29.5298C16.9551 29.8535 17.2176 30.1158 17.541 30.1158C17.8647 30.1158 18.127 29.8535 18.127 29.5298V25.4667C18.127 24.6979 18.3833 23.9376 18.8488 23.3258L21.2143 20.2171C21.3308 20.0642 21.5 19.9669 21.6907 19.9429C21.8813 19.9193 22.0692 19.972 22.2196 20.0917C22.5187 20.3297 22.5739 20.7691 22.3437 21.0736L21.351 22.3665C21.1539 22.6233 21.2022 22.9911 21.4588 23.1882C21.7154 23.3853 22.0832 23.337 22.2805 23.0804L23.2699 21.7916C23.2718 21.7893 23.2734 21.787 23.2752 21.7847L24.5022 20.1869C24.8112 19.7843 24.9815 19.2832 24.9815 18.7756V13.4896C24.9815 13.0558 25.3345 12.7029 25.7682 12.7029C26.1761 12.7029 26.5127 13.0091 26.5514 13.4154L27.1788 20.0292C27.2058 20.3157 27.1252 20.5995 26.9538 20.8259L21.8522 27.4688C21.7737 27.5711 21.7312 27.6967 21.7312 27.8258V29.5298C21.7312 29.8535 21.9935 30.1158 22.3171 30.1158C22.6407 30.1158 22.903 29.8535 22.903 29.5298V28.0247L27.8856 21.5366C28.2369 21.0726 28.4003 20.4979 28.3454 19.9186Z" fill="#EA5C10"/>
<path d="M9.78948 6.68399C9.9957 6.82154 10.2749 6.81285 10.4713 6.66156C10.656 6.51919 10.7428 6.27062 10.6805 6.04495C10.6139 5.80302 10.3974 5.62541 10.1459 5.61167C9.89683 5.59817 9.66177 5.75015 9.57044 5.98155C9.47019 6.23583 9.56289 6.53155 9.78948 6.68399Z" fill="#EA5C10"/>
</g>
<defs>
<clipPath id="clip0">
<rect width="30" height="30" fill="white" transform="translate(0.394531 0.115723)"/>
</clipPath>
</defs>
</svg>
