<svg width="36" height="50" viewBox="0 0 36 50" fill="none" xmlns="http://www.w3.org/2000/svg">
<path d="M35.521 43.3193L24.9478 17.5476C24.3615 16.1179 24.064 14.6095 24.064 13.0642V6.25191C24.064 5.51834 24.3497 4.82864 24.8685 4.30984C25.501 3.67737 25.8496 2.83623 25.8496 1.94168V0.976562C25.8496 0.437164 25.4121 0 24.8731 0H11.2382C10.6988 0 10.2616 0.437164 10.2616 0.976562V1.94168C10.2616 2.83623 10.6099 3.67737 11.2424 4.30984C11.7612 4.82864 12.0469 5.51834 12.0469 6.25229V13.0642C12.0469 14.6095 11.7497 16.1179 11.163 17.5476L8.25776 24.6292C8.25662 24.6319 8.25548 24.6346 8.25433 24.6372L0.589842 43.3193C-0.0239427 44.8158 0.147337 46.5115 1.04837 47.8546C1.9494 49.1982 3.45277 50 5.0702 50H31.0407C32.6581 50 34.1618 49.1982 35.0629 47.8546C35.9635 46.5111 36.1348 44.8158 35.521 43.3193ZM12.9701 18.2888C13.6537 16.6229 14 14.8651 14 13.0642V6.25191C14 4.99687 13.5114 3.8166 12.6237 2.92892C12.3628 2.668 12.2178 2.32162 12.2148 1.95312H23.8965C23.8934 2.32162 23.7485 2.66762 23.4872 2.92892C22.5999 3.8166 22.1108 4.99649 22.1108 6.25191V13.0638C22.1108 14.8647 22.4576 16.6225 23.1408 18.2884L25.4987 24.0356H10.6122L12.9701 18.2888ZM33.4405 46.7667C32.895 47.5803 32.0203 48.0469 31.0407 48.0469H5.0702C4.09097 48.0469 3.21626 47.5803 2.67038 46.7667C2.25877 46.1529 2.10161 45.4411 2.20842 44.7392H3.81746C4.35647 44.7392 4.79402 44.3016 4.79402 43.7626C4.79402 43.2232 4.35647 42.786 3.81746 42.786H2.92024L4.04176 40.0517H5.68895C6.22835 40.0517 6.66551 39.6141 6.66551 39.0751C6.66551 38.5357 6.22835 38.0985 5.68895 38.0985H4.84323L5.96475 35.3642H7.65848C8.19787 35.3642 8.63504 34.9266 8.63504 34.3876C8.63504 33.8482 8.19787 33.411 7.65848 33.411H6.76622L7.88812 30.6767H9.62762C10.167 30.6767 10.6042 30.2391 10.6042 29.7001C10.6042 29.1607 10.167 28.7235 9.62762 28.7235H8.68921L9.81111 25.9892H26.2998L33.714 44.0609C34.0856 44.9669 33.986 45.9534 33.4405 46.7667Z" fill="white"/>
<path d="M11.5 28H25L31.5 46H5L11.5 28Z" fill="#EA5C10"/>
<path d="M30.6981 43.3804C30.4936 42.8811 29.9237 42.6423 29.4243 42.8464C28.9254 43.0508 28.6862 43.6208 28.8903 44.1201L28.8956 44.1323C29.0505 44.5103 29.4148 44.7392 29.7997 44.7392C29.9229 44.7392 30.048 44.716 30.1693 44.6664C30.6683 44.4619 30.9075 43.8916 30.703 43.3926L30.6981 43.3804Z" fill="white"/>
<path d="M29.318 40.0159L25.8207 31.4915C25.6162 30.9926 25.0459 30.7538 24.5466 30.9586C24.0476 31.1631 23.8092 31.7338 24.0136 32.2327L27.511 40.7571C27.6658 41.1351 28.0301 41.3632 28.415 41.3632C28.5383 41.3632 28.6638 41.3399 28.7851 41.29C29.284 41.0855 29.5228 40.5148 29.318 40.0159Z" fill="white"/>
</svg>
