<svg width="17" height="17" viewBox="0 0 17 17" fill="none" xmlns="http://www.w3.org/2000/svg">
<path d="M8.88574 0.5C4.47128 0.5 0.885742 4.08554 0.885742 8.5C0.885742 12.9145 4.47128 16.5 8.88574 16.5C13.3002 16.5 16.8857 12.9145 16.8857 8.5C16.8857 4.08554 13.3002 0.5 8.88574 0.5ZM8.88574 15.806C4.85683 15.806 1.57972 12.5289 1.57972 8.5C1.57972 4.47108 4.85683 1.19398 8.88574 1.19398C12.9147 1.19398 16.1918 4.47108 16.1918 8.5C16.1918 12.5289 12.9147 15.806 8.88574 15.806Z" fill="#EA5C10"/>
<path d="M13.0497 6.76504H10.6208V4.33612C10.6208 4.14335 10.4666 3.98914 10.2738 3.98914H7.49789C7.30512 3.98914 7.1509 4.14335 7.1509 4.33612V6.76504H4.72199C4.52922 6.76504 4.375 6.91926 4.375 7.11203V9.88793C4.375 10.0807 4.52922 10.2349 4.72199 10.2349H7.1509V12.6638C7.1509 12.8566 7.30512 13.0108 7.49789 13.0108H10.2738C10.4666 13.0108 10.6208 12.8566 10.6208 12.6638V10.2349H13.0497C13.2425 10.2349 13.3967 10.0807 13.3967 9.88793V7.11203C13.3774 6.91926 13.2232 6.76504 13.0497 6.76504ZM12.722 9.54094H12.7027H10.2738C10.081 9.54094 9.92681 9.69516 9.92681 9.88793V12.3168H7.84488V9.88793C7.84488 9.69516 7.69066 9.54094 7.49789 9.54094H5.06898V7.45901H7.49789C7.69066 7.45901 7.84488 7.3048 7.84488 7.11203V4.68311H9.94608V7.11203C9.94608 7.3048 10.1003 7.45901 10.2931 7.45901H12.722V9.54094Z" fill="#EA5C10"/>
</svg>
