<svg width="37" height="37" viewBox="0 0 37 37" fill="none" xmlns="http://www.w3.org/2000/svg">
<path d="M18.5 0C8.52879 0 0 8.51296 0 18.5C0 28.4735 8.51398 37 18.5 37C28.4712 37 37 28.487 37 18.5C37 8.52655 28.486 0 18.5 0ZM18.5 35.5547C9.25542 35.5547 1.44531 27.7446 1.44531 18.5C1.44531 9.25542 9.25542 1.5 18.5 1.5C27.7446 1.5 35.5547 9.25542 35.5547 18.5C35.5547 27.7446 27.7446 35.5547 18.5 35.5547Z" fill="#7B549E"/>
<path d="M27.1719 14.8867H22.1133V9.82812C22.1133 9.42907 21.7897 9.10547 21.3906 9.10547H15.6094C15.2103 9.10547 14.8867 9.42907 14.8867 9.82812V14.8867H9.82812C9.42907 14.8867 9.10547 15.2103 9.10547 15.6094V21.3906C9.10547 21.7897 9.42907 22.1133 9.82812 22.1133H14.8867V27.1719C14.8867 27.5709 15.2103 27.8945 15.6094 27.8945H21.3906C21.7897 27.8945 22.1133 27.5709 22.1133 27.1719V22.1133H27.1719C27.5709 22.1133 27.8945 21.7897 27.8945 21.3906V15.6094C27.8945 15.2103 27.5709 14.8867 27.1719 14.8867ZM26.4492 20.668H21.3906C20.9916 20.668 20.668 20.9916 20.668 21.3906V26.4492H16.332V21.3906C16.332 20.9916 16.0084 20.668 15.6094 20.668H10.5508V16.332H15.6094C16.0084 16.332 16.332 16.0084 16.332 15.6094V10.5508H20.668V15.6094C20.668 16.0084 20.9916 16.332 21.3906 16.332H26.4492V20.668Z" fill="#7B549E"/>
</svg>
