<svg width="57" height="57" viewBox="0 0 57 57" fill="none" xmlns="http://www.w3.org/2000/svg">
<path d="M16.8125 43.6406H15.0312V50.7656H9.6875V46.3125C9.6875 40.7194 14.0079 36.1255 19.4844 35.6704V43.8054C18.4504 44.1741 17.7031 45.1538 17.7031 46.3134C17.7031 47.7865 18.9019 48.9853 20.375 48.9853C21.8481 48.9853 23.0469 47.7865 23.0469 46.3134C23.0469 45.1538 22.2996 44.1741 21.2656 43.8054V35.625H21.7875L26.8703 40.7078C27.044 40.8815 27.272 40.9688 27.5 40.9688C27.728 40.9688 27.956 40.8815 28.1297 40.7078L32.8438 35.9937V43.7671C31.3119 44.1652 30.1719 45.5475 30.1719 47.2031V48.0938C30.1719 48.5863 30.5709 48.9844 31.0625 48.9844H32.8438V47.2031H31.9531C31.9531 46.2208 32.752 45.4219 33.7344 45.4219C34.7167 45.4219 35.5156 46.2208 35.5156 47.2031H34.625V48.9844H36.4062C36.8979 48.9844 37.2969 48.5863 37.2969 48.0938V47.2031C37.2969 45.5475 36.1569 44.1652 34.625 43.7671V35.625C40.5183 35.625 45.3125 40.4192 45.3125 46.3125V50.7656H39.9688V43.6406H38.1875V56.1094H39.9688V52.5469H43.5312V56.1094H45.3125V52.5469H46.2031C46.6948 52.5469 47.0938 52.1488 47.0938 51.6562V46.3125C47.0938 39.4369 41.5006 33.8438 34.625 33.8438H33.7344V32.1569C36.718 30.4246 38.9214 27.4989 39.6775 24.0317C41.815 23.9489 43.5312 22.1962 43.5312 20.0391C43.5312 17.9817 41.9673 16.3011 39.9688 16.0767V15.1406C40.4604 15.1406 40.8594 14.7416 40.8594 14.25V6.23438C40.8594 3.2873 38.4627 0.890625 35.5156 0.890625H19.4844C16.5373 0.890625 14.1406 3.2873 14.1406 6.23438V14.25C14.1406 14.7416 14.5396 15.1406 15.0312 15.1406V16.0767C13.0327 16.3011 11.4688 17.9817 11.4688 20.0391C11.4688 22.1962 13.185 23.9489 15.3225 24.0317C16.0786 27.4989 18.282 30.4255 21.2656 32.1569V33.8438H20.375C13.4994 33.8438 7.90625 39.4369 7.90625 46.3125V51.6562C7.90625 52.1488 8.30525 52.5469 8.79688 52.5469H9.6875V56.1094H11.4688V52.5469H15.0312V56.1094H16.8125V43.6406ZM34.625 29.3185C32.7315 31.0178 30.2387 32.0625 27.5 32.0625C24.7613 32.0625 22.2685 31.0178 20.375 29.3185V22.2656H34.625V29.3185ZM36.4062 27.27V21.7437L38.1875 19.9625V21.375C38.1875 23.5526 37.5293 25.5787 36.4062 27.27ZM41.75 20.0391C41.75 21.1292 40.9618 22.0341 39.926 22.2247C39.9447 21.9432 39.9688 21.6618 39.9688 21.375V17.8579C40.9841 18.0645 41.75 18.9641 41.75 20.0391ZM15.9219 6.23438C15.9219 4.26966 17.5197 2.67188 19.4844 2.67188H35.5156C37.4803 2.67188 39.0781 4.26966 39.0781 6.23438V13.3594H15.9219V6.23438ZM38.1875 15.1406V17.4438L35.1469 20.4844H19.8531L16.8125 17.4438V15.1406H38.1875ZM13.25 20.0391C13.25 18.9641 14.0159 18.0645 15.0312 17.8579V21.375C15.0312 21.6618 15.0553 21.9432 15.074 22.2247C14.0382 22.0341 13.25 21.1292 13.25 20.0391ZM16.8125 19.9625L18.5938 21.7437V27.27C17.4707 25.5787 16.8125 23.5535 16.8125 21.375V19.9625ZM20.375 47.2031C19.8843 47.2031 19.4844 46.8041 19.4844 46.3125C19.4844 45.8209 19.8843 45.4219 20.375 45.4219C20.8657 45.4219 21.2656 45.8209 21.2656 46.3125C21.2656 46.8041 20.8657 47.2031 20.375 47.2031ZM27.5 38.8188L23.0469 34.3657V33.0075C24.4318 33.54 25.9298 33.8438 27.5 33.8438C29.0702 33.8438 30.5682 33.54 31.9531 33.0075V34.3657L27.5 38.8188Z" fill="#7B549E"/>
<path d="M28.3906 6.23438H26.6094V8.01562H24.8281V9.79688H26.6094V11.5781H28.3906V9.79688H30.1719V8.01562H28.3906V6.23438Z" fill="#7B549E"/>
</svg>
