<svg width="37" height="37" viewBox="0 0 37 37" fill="none" xmlns="http://www.w3.org/2000/svg">
<path d="M11.5625 28.3281H10.4062V32.9531H6.9375V30.0625C6.9375 26.4319 9.74198 23.4499 13.2969 23.1545V28.4351C12.6257 28.6744 12.1406 29.3104 12.1406 30.0631C12.1406 31.0193 12.9188 31.7975 13.875 31.7975C14.8312 31.7975 15.6094 31.0193 15.6094 30.0631C15.6094 29.3104 15.1243 28.6744 14.4531 28.4351V23.125H14.7919L18.0913 26.4244C18.204 26.5371 18.352 26.5938 18.5 26.5938C18.648 26.5938 18.796 26.5371 18.9087 26.4244L21.9688 23.3643V28.4102C20.9744 28.6686 20.2344 29.5659 20.2344 30.6406V31.2188C20.2344 31.5385 20.4934 31.7969 20.8125 31.7969H21.9688V30.6406H21.3906C21.3906 30.003 21.9092 29.4844 22.5469 29.4844C23.1845 29.4844 23.7031 30.003 23.7031 30.6406H23.125V31.7969H24.2812C24.6004 31.7969 24.8594 31.5385 24.8594 31.2188V30.6406C24.8594 29.5659 24.1194 28.6686 23.125 28.4102V23.125C26.9505 23.125 30.0625 26.237 30.0625 30.0625V32.9531H26.5938V28.3281H25.4375V36.4219H26.5938V34.1094H28.9062V36.4219H30.0625V34.1094H30.6406C30.9597 34.1094 31.2188 33.851 31.2188 33.5312V30.0625C31.2188 25.5994 27.5881 21.9688 23.125 21.9688H22.5469V20.8738C24.4836 19.7493 25.9139 17.8502 26.4047 15.5995C27.7922 15.5458 28.9062 14.408 28.9062 13.0078C28.9062 11.6723 27.8911 10.5814 26.5938 10.4357V9.82812C26.9129 9.82812 27.1719 9.56913 27.1719 9.25V4.04688C27.1719 2.13386 25.6161 0.578125 23.7031 0.578125H13.2969C11.3839 0.578125 9.82812 2.13386 9.82812 4.04688V9.25C9.82812 9.56913 10.0871 9.82812 10.4062 9.82812V10.4357C9.10894 10.5814 8.09375 11.6723 8.09375 13.0078C8.09375 14.408 9.2078 15.5458 10.5953 15.5995C11.0861 17.8502 12.5164 19.7499 14.4531 20.8738V21.9688H13.875C9.41188 21.9688 5.78125 25.5994 5.78125 30.0625V33.5312C5.78125 33.851 6.04025 34.1094 6.35938 34.1094H6.9375V36.4219H8.09375V34.1094H10.4062V36.4219H11.5625V28.3281ZM23.125 19.0313C21.8959 20.1344 20.2777 20.8125 18.5 20.8125C16.7223 20.8125 15.1041 20.1344 13.875 19.0313V14.4531H23.125V19.0313ZM24.2812 17.7016V14.1143L25.4375 12.9581V13.875C25.4375 15.2885 25.0103 16.6038 24.2812 17.7016ZM27.75 13.0078C27.75 13.7154 27.2384 14.3028 26.566 14.4265C26.5781 14.2438 26.5938 14.0612 26.5938 13.875V11.592C27.2528 11.7261 27.75 12.31 27.75 13.0078ZM10.9844 4.04688C10.9844 2.77153 12.0215 1.73438 13.2969 1.73438H23.7031C24.9785 1.73438 26.0156 2.77153 26.0156 4.04688V8.67188H10.9844V4.04688ZM25.4375 9.82812V11.3232L23.4638 13.2969H13.5362L11.5625 11.3232V9.82812H25.4375ZM9.25 13.0078C9.25 12.31 9.74719 11.7261 10.4062 11.592V13.875C10.4062 14.0612 10.4219 14.2438 10.434 14.4265C9.76164 14.3028 9.25 13.7154 9.25 13.0078ZM11.5625 12.9581L12.7188 14.1143V17.7016C11.9897 16.6038 11.5625 15.2891 11.5625 13.875V12.9581ZM13.875 30.6406C13.5565 30.6406 13.2969 30.3816 13.2969 30.0625C13.2969 29.7434 13.5565 29.4844 13.875 29.4844C14.1935 29.4844 14.4531 29.7434 14.4531 30.0625C14.4531 30.3816 14.1935 30.6406 13.875 30.6406ZM18.5 25.1982L15.6094 22.3075V21.4259C16.5084 21.7716 17.4808 21.9688 18.5 21.9688C19.5192 21.9688 20.4916 21.7716 21.3906 21.4259V22.3075L18.5 25.1982Z" fill="#7B549E"/>
<path d="M19.0781 4.04688H17.9219V5.20312H16.7656V6.35938H17.9219V7.51562H19.0781V6.35938H20.2344V5.20312H19.0781V4.04688Z" fill="#7B549E"/>
</svg>
