<svg width="47" height="47" viewBox="0 0 47 47" fill="none" xmlns="http://www.w3.org/2000/svg">
<path d="M45.75 0H0.75C0.551088 0 0.360322 0.0790176 0.21967 0.21967C0.0790176 0.360322 0 0.551088 0 0.75V39.75C0 39.9489 0.0790176 40.1397 0.21967 40.2803C0.360322 40.421 0.551088 40.5 0.75 40.5H30.3122C30.8549 42.4163 32.0725 44.0715 33.7402 45.1602C35.4079 46.2489 37.4131 46.6976 39.3858 46.4234C41.3584 46.1492 43.1653 45.1707 44.4729 43.6684C45.7805 42.1662 46.5005 40.2416 46.5 38.25V0.75C46.5 0.551088 46.421 0.360322 46.2803 0.21967C46.1397 0.0790176 45.9489 0 45.75 0ZM38.25 45C36.915 45 35.6099 44.6041 34.4999 43.8624C33.3899 43.1207 32.5247 42.0665 32.0138 40.8331C31.5029 39.5997 31.3692 38.2425 31.6297 36.9331C31.8901 35.6238 32.533 34.421 33.477 33.477C34.421 32.533 35.6238 31.8902 36.9331 31.6297C38.2425 31.3693 39.5997 31.5029 40.8331 32.0138C42.0665 32.5247 43.1207 33.3899 43.8624 34.4999C44.6041 35.6099 45 36.915 45 38.25C44.9979 40.0396 44.2861 41.7553 43.0207 43.0207C41.7553 44.2861 40.0396 44.9979 38.25 45ZM45 33.5119C43.993 32.0761 42.5546 30.9987 40.8937 30.436C39.2327 29.8734 37.4356 29.8548 35.7634 30.383C34.0911 30.9113 32.6308 31.9588 31.5944 33.3734C30.558 34.7881 29.9995 36.4963 30 38.25C30 38.5031 30.0122 38.7525 30.0347 39H1.5V1.5H45V33.5119Z" fill="#7B549E"/>
<path d="M42.75 3H3.75C3.55109 3 3.36032 3.07902 3.21967 3.21967C3.07902 3.36032 3 3.55109 3 3.75V27.75C3 27.9489 3.07902 28.1397 3.21967 28.2803C3.36032 28.421 3.55109 28.5 3.75 28.5H42.75C42.9489 28.5 43.1397 28.421 43.2803 28.2803C43.421 28.1397 43.5 27.9489 43.5 27.75V3.75C43.5 3.55109 43.421 3.36032 43.2803 3.21967C43.1397 3.07902 42.9489 3 42.75 3ZM7.47281 27L13.5309 18.5447L20.2369 27H7.47281ZM22.1522 27L18.3478 22.2038L26.2819 11.0025L38.8922 27H22.1522ZM42 27H40.8028L26.8387 9.28594C26.7666 9.19419 26.6741 9.12056 26.5685 9.07091C26.4629 9.02127 26.3472 8.99698 26.2305 8.99998C26.1139 9.00299 25.9995 9.03321 25.8966 9.08822C25.7937 9.14324 25.7051 9.22154 25.6378 9.31687L17.3766 20.9794L14.0878 16.8337C14.0152 16.7431 13.9228 16.6703 13.8176 16.6211C13.7124 16.5718 13.5974 16.5474 13.4813 16.5497C13.3653 16.5525 13.2515 16.5823 13.149 16.6366C13.0465 16.691 12.9581 16.7684 12.8906 16.8628L5.62781 27H4.5V4.5H42V27Z" fill="#7B549E"/>
<path d="M14.25 14.25C14.9917 14.25 15.7167 14.0301 16.3334 13.618C16.9501 13.206 17.4307 12.6203 17.7145 11.9351C17.9984 11.2498 18.0726 10.4958 17.9279 9.76841C17.7832 9.04098 17.4261 8.3728 16.9016 7.84835C16.3772 7.3239 15.709 6.96675 14.9816 6.82206C14.2542 6.67736 13.5002 6.75162 12.8149 7.03545C12.1297 7.31928 11.544 7.79993 11.132 8.41661C10.7199 9.0333 10.5 9.75832 10.5 10.5C10.5011 11.4942 10.8966 12.4474 11.5996 13.1504C12.3026 13.8534 13.2558 14.2489 14.25 14.25ZM14.25 8.25C14.695 8.25 15.13 8.38196 15.5 8.62919C15.87 8.87643 16.1584 9.22783 16.3287 9.63896C16.499 10.0501 16.5436 10.5025 16.4568 10.939C16.3699 11.3754 16.1557 11.7763 15.841 12.091C15.5263 12.4057 15.1254 12.6199 14.689 12.7068C14.2525 12.7936 13.8001 12.749 13.389 12.5787C12.9778 12.4084 12.6264 12.12 12.3792 11.75C12.132 11.38 12 10.945 12 10.5C12.0007 9.90348 12.238 9.33158 12.6598 8.90978C13.0816 8.48797 13.6535 8.2507 14.25 8.25Z" fill="#7B549E"/>
<path d="M40.5 36V33.75C40.5 33.5511 40.421 33.3603 40.2803 33.2197C40.1397 33.079 39.9489 33 39.75 33H36.75C36.5511 33 36.3603 33.079 36.2197 33.2197C36.079 33.3603 36 33.5511 36 33.75V36H33.75C33.5511 36 33.3603 36.079 33.2197 36.2197C33.079 36.3603 33 36.5511 33 36.75V39.75C33 39.9489 33.079 40.1397 33.2197 40.2803C33.3603 40.421 33.5511 40.5 33.75 40.5H36V42.75C36 42.9489 36.079 43.1397 36.2197 43.2803C36.3603 43.421 36.5511 43.5 36.75 43.5H39.75C39.9489 43.5 40.1397 43.421 40.2803 43.2803C40.421 43.1397 40.5 42.9489 40.5 42.75V40.5H42.75C42.9489 40.5 43.1397 40.421 43.2803 40.2803C43.421 40.1397 43.5 39.9489 43.5 39.75V36.75C43.5 36.5511 43.421 36.3603 43.2803 36.2197C43.1397 36.079 42.9489 36 42.75 36H40.5ZM42 39H39.75C39.5511 39 39.3603 39.079 39.2197 39.2197C39.079 39.3603 39 39.5511 39 39.75V42H37.5V39.75C37.5 39.5511 37.421 39.3603 37.2803 39.2197C37.1397 39.079 36.9489 39 36.75 39H34.5V37.5H36.75C36.9489 37.5 37.1397 37.421 37.2803 37.2803C37.421 37.1397 37.5 36.9489 37.5 36.75V34.5H39V36.75C39 36.9489 39.079 37.1397 39.2197 37.2803C39.3603 37.421 39.5511 37.5 39.75 37.5H42V39Z" fill="#7B549E"/>
<path d="M9 30H3.75C3.55109 30 3.36032 30.079 3.21967 30.2197C3.07902 30.3603 3 30.5511 3 30.75V36.75C3 36.9489 3.07902 37.1397 3.21967 37.2803C3.36032 37.421 3.55109 37.5 3.75 37.5H9C9.19891 37.5 9.38968 37.421 9.53033 37.2803C9.67098 37.1397 9.75 36.9489 9.75 36.75V30.75C9.75 30.5511 9.67098 30.3603 9.53033 30.2197C9.38968 30.079 9.19891 30 9 30ZM8.25 36H4.5V31.5H8.25V36Z" fill="#7B549E"/>
<path d="M20.25 30H12C11.8011 30 11.6103 30.079 11.4697 30.2197C11.329 30.3603 11.25 30.5511 11.25 30.75C11.25 30.9489 11.329 31.1397 11.4697 31.2803C11.6103 31.421 11.8011 31.5 12 31.5H20.25C20.4489 31.5 20.6397 31.421 20.7803 31.2803C20.921 31.1397 21 30.9489 21 30.75C21 30.5511 20.921 30.3603 20.7803 30.2197C20.6397 30.079 20.4489 30 20.25 30Z" fill="#7B549E"/>
<path d="M20.25 33H12C11.8011 33 11.6103 33.079 11.4697 33.2197C11.329 33.3603 11.25 33.5511 11.25 33.75C11.25 33.9489 11.329 34.1397 11.4697 34.2803C11.6103 34.421 11.8011 34.5 12 34.5H20.25C20.4489 34.5 20.6397 34.421 20.7803 34.2803C20.921 34.1397 21 33.9489 21 33.75C21 33.5511 20.921 33.3603 20.7803 33.2197C20.6397 33.079 20.4489 33 20.25 33Z" fill="#7B549E"/>
<path d="M15.75 36H12C11.8011 36 11.6103 36.079 11.4697 36.2197C11.329 36.3603 11.25 36.5511 11.25 36.75C11.25 36.9489 11.329 37.1397 11.4697 37.2803C11.6103 37.421 11.8011 37.5 12 37.5H15.75C15.9489 37.5 16.1397 37.421 16.2803 37.2803C16.421 37.1397 16.5 36.9489 16.5 36.75C16.5 36.5511 16.421 36.3603 16.2803 36.2197C16.1397 36.079 15.9489 36 15.75 36Z" fill="#7B549E"/>
</svg>
