<svg width="18" height="18" viewBox="0 0 18 18" fill="none" xmlns="http://www.w3.org/2000/svg">
<g clip-path="url(#clip0)">
<path d="M15.674 2.50787H1.88087C0.842095 2.50787 0 3.34997 0 4.38875V13.1661C0 14.2049 0.842095 15.047 1.88087 15.047H15.674C16.7127 15.047 17.5548 14.2049 17.5548 13.1661V4.38875C17.5548 3.34997 16.7127 2.50787 15.674 2.50787ZM16.3009 9.77179L12.3555 5.82637C12.1107 5.5816 11.7138 5.5816 11.469 5.82637L6.26959 11.0257L4.205 8.96111C3.96019 8.71634 3.5633 8.71634 3.31849 8.96111L1.88087 3.44831L1.2539 4.38875C1.2539 4.04248 1.5346 3.76178 1.88087 3.76178H15.674C16.0202 3.76178 16.3009 4.04248 16.3009 4.38875L16.3009 9.77179Z" fill="#7B549E"/>
<rect x="0.87793" y="3.51093" width="15.7993" height="10.4075" fill="#7B549E"/>
<path d="M10.9998 8.32883C11.3723 8.51201 11.3723 9.043 10.9998 9.22618L7.55441 10.9207C7.22216 11.0841 6.83374 10.8423 6.83374 10.472L6.83374 7.08299C6.83374 6.71273 7.22216 6.47091 7.55441 6.63431L10.9998 8.32883Z" fill="white"/>
</g>
<defs>
<clipPath id="clip0">
<rect width="17.5548" height="17.5548" fill="white"/>
</clipPath>
</defs>
</svg>
