<svg width="19" height="19" viewBox="0 0 19 19" fill="none" xmlns="http://www.w3.org/2000/svg">
<g clip-path="url(#clip0)">
<path d="M16.4578 2.62634H1.97493C0.884205 2.62634 0 3.50826 0 4.59617V13.7887C0 14.8766 0.884205 15.7585 1.97493 15.7585H16.4578C17.5485 15.7585 18.4327 14.8766 18.4327 13.7887V4.59617C18.4327 3.50826 17.5485 2.62634 16.4578 2.62634ZM17.116 10.2338L12.9733 6.10177C12.7163 5.84543 12.2995 5.84543 12.0425 6.10177L6.58311 11.547L4.41528 9.38476C4.15823 9.12841 3.74149 9.12841 3.48444 9.38476L1.31661 11.547V4.59617C1.31661 4.23352 1.61134 3.93955 1.97493 3.93955H16.4578C16.8213 3.93955 17.1161 4.23352 17.1161 4.59617V10.2338H17.116Z" fill="#7B549E"/>
<path d="M5.92464 9.19264C7.01536 9.19264 7.89957 8.31072 7.89957 7.22282C7.89957 6.13491 7.01536 5.25299 5.92464 5.25299C4.83391 5.25299 3.94971 6.13491 3.94971 7.22282C3.94971 8.31072 4.83391 9.19264 5.92464 9.19264Z" fill="#7B549E"/>
</g>
<defs>
<clipPath id="clip0">
<rect width="18.4327" height="18.385" fill="white"/>
</clipPath>
</defs>
</svg>
