<svg width="17" height="15" viewBox="0 0 17 15" fill="none" xmlns="http://www.w3.org/2000/svg">
<path d="M12.8922 8.23272V13.8087H4.07201V8.12073H3.23682V14.168C3.23682 14.4332 3.45168 14.648 3.71675 14.648H13.2837C13.5488 14.648 13.7636 14.4331 13.7636 14.168V8.23272H12.8922Z" fill="#EA5C10"/>
<path d="M16.1145 7.331C16.104 7.19887 16.0392 7.07693 15.9355 6.99424L8.8003 1.29885C8.62497 1.15901 8.3765 1.15901 8.2015 1.29885L1.06628 6.99424C0.962615 7.07693 0.897827 7.19887 0.887267 7.331C0.876707 7.46314 0.921356 7.59384 1.01045 7.69192L2.4343 9.25975C2.52869 9.36374 2.65892 9.41702 2.78977 9.41702C2.8952 9.41702 3.00142 9.3823 3.08959 9.31174L8.50099 4.97655L13.9121 9.31174C14.1103 9.46982 14.3971 9.44771 14.5675 9.25975L15.9914 7.69192C16.0806 7.59384 16.1251 7.46314 16.1145 7.331ZM14.2376 8.5335L8.87195 4.19493C8.78444 4.1247 8.60721 4.07491 8.50099 4.07491C8.39476 4.07491 8.20947 4.14971 8.1218 4.21994L2.73823 8.49635L1.80771 7.39023L8.50099 2.06831L15.2563 7.39023L14.2376 8.5335Z" fill="#EA5C10"/>
<path d="M12.9909 0.5H11.103C10.8379 0.5 10.623 0.71486 10.623 0.979933V3.69964H11.4282V1.37866H12.6479V5.08159L13.4709 5.13944V0.979933C13.4709 0.714831 13.256 0.5 12.9909 0.5Z" fill="#EA5C10"/>
<path d="M8.49982 8.28088C8.27821 8.28088 8.09863 8.49574 8.09863 8.76082V11.9925C8.09863 12.2576 8.27824 12.4724 8.49982 12.4724C8.72139 12.4724 8.90087 12.2575 8.901 11.9925V8.76082C8.901 8.49574 8.72139 8.28088 8.49982 8.28088Z" fill="#EA5C10"/>
<path d="M10.1173 10.0009H6.88569C6.62059 10.0009 6.40576 10.1691 6.40576 10.3767C6.40576 10.5844 6.62062 10.7526 6.88569 10.7526H10.1173C10.3824 10.7526 10.5973 10.5843 10.5973 10.3767C10.5973 10.1691 10.3824 10.0009 10.1173 10.0009Z" fill="#EA5C10"/>
</svg>
