<svg width="14" height="17" viewBox="0 0 14 17" fill="none" xmlns="http://www.w3.org/2000/svg">
<path d="M10.1642 11.8466C10.1603 11.8466 10.1565 11.8466 10.1488 11.8466H8.56021V11.2931C9.95313 10.6566 10.8933 9.27684 11.0045 7.71125C11.5878 7.60451 11.9754 7.03125 11.8679 6.43031C11.8295 6.20892 11.7259 6.00333 11.5724 5.84519C11.419 5.69101 11.2271 5.58821 11.016 5.54077V3.78146H11.6262C11.7912 3.78541 11.9293 3.65495 11.9331 3.48494C11.9331 3.48099 11.9331 3.48099 11.9331 3.47704C11.9293 1.82842 10.6323 0.496087 9.03219 0.500041H6.36148C5.81659 0.496087 5.30624 0.78074 5.01077 1.25121C4.02844 1.29865 3.47588 1.86005 3.18041 2.34238C2.97704 2.67843 2.83889 3.05006 2.76982 3.4375C2.76599 3.45332 2.76599 3.46518 2.76215 3.48099V5.54473C2.55494 5.58821 2.35924 5.69496 2.20959 5.84915C1.79133 6.28403 1.79517 6.97985 2.21726 7.41078C2.37075 7.56893 2.56645 7.67172 2.78134 7.71125C2.85041 8.73521 3.27634 9.69592 3.98239 10.4155C4.37763 10.8266 4.84961 11.1508 5.37531 11.3564V11.8466H3.80204C2.19424 11.8466 0.885742 13.175 0.885742 14.8276V16.0611C0.885742 16.235 1.02388 16.3774 1.19272 16.3774C1.36156 16.3774 1.4997 16.235 1.4997 16.0611V14.8276C1.50354 13.5822 2.43982 12.5464 3.64855 12.4634V12.8666C2.9732 13.0208 2.49738 13.6415 2.49738 14.3532V16.0374C2.50122 16.2113 2.63936 16.3536 2.8082 16.3497H3.27634C3.44518 16.3497 3.58332 16.2074 3.58332 16.0334C3.58332 15.8594 3.44518 15.7171 3.27634 15.7171H3.11134V14.3492C3.11518 13.8629 3.49506 13.4676 3.96704 13.4636H3.97855C4.45437 13.4636 4.84193 13.859 4.84193 14.3492V15.7211H4.56565C4.39681 15.7211 4.25867 15.8634 4.25867 16.0374C4.25867 16.2113 4.39681 16.3536 4.56565 16.3536H5.14507C5.31391 16.3536 5.44821 16.2153 5.45205 16.0453C5.45205 16.0453 5.45205 16.0453 5.45205 16.0413V14.3571C5.45589 13.6297 4.95321 13.005 4.26251 12.8666V12.4792H5.54415L6.60322 13.6138V15.6697C6.60322 15.8436 6.74136 15.986 6.9102 15.986C7.07904 15.986 7.21718 15.8436 7.21718 15.6697V13.6218L8.39137 12.4792H9.86487V14.0369C9.33917 14.1871 8.97847 14.6813 8.9708 15.2387C8.96312 15.9306 9.50033 16.492 10.1719 16.4999C10.8434 16.5078 11.3883 15.9543 11.3959 15.2625C11.3998 14.9225 11.2693 14.5943 11.0314 14.3571C10.8817 14.195 10.686 14.0804 10.475 14.0329V12.4831C11.5993 12.6571 12.432 13.6534 12.432 14.8276V16.0611C12.432 16.235 12.5701 16.3774 12.739 16.3774C12.9078 16.3774 13.0459 16.235 13.0459 16.0611V14.8276C13.0498 13.1829 11.7566 11.8466 10.1642 11.8466ZM2.76215 7.04497C2.60716 6.96518 2.51273 6.80439 2.51273 6.62403C2.51273 6.49752 2.55878 6.37892 2.6432 6.29194C2.67773 6.25636 2.71994 6.22868 2.76215 6.20101V7.04497ZM11.135 6.29194C11.2194 6.37892 11.2693 6.50148 11.2693 6.62799C11.2693 6.8059 11.1695 6.97194 11.0122 7.05101V6.20496C11.0583 6.22868 11.1005 6.25636 11.135 6.29194ZM5.47124 1.70191C5.52112 1.59912 5.58635 1.50819 5.6631 1.42516C5.84729 1.23539 6.10054 1.12865 6.36148 1.1326H9.03219C10.191 1.1326 11.1503 2.00238 11.3 3.1489H6.36148C6.34996 3.1489 6.34229 3.15285 6.33078 3.1568C6.31927 3.1568 6.31159 3.1568 6.30008 3.1568C5.77822 3.12517 5.37147 2.68238 5.37147 2.1447C5.37147 1.99052 5.406 1.84028 5.47124 1.70191ZM3.37994 3.50471C3.41832 3.42169 3.47204 3.0461 3.69844 2.67843C3.95553 2.25935 4.32007 2.00238 4.77286 1.9154C4.76135 1.99052 4.75751 2.06563 4.75751 2.1447C4.75751 2.80494 5.14124 3.40587 5.73217 3.66285C4.83809 4.63937 3.84041 4.76588 3.37994 4.76984V3.50471ZM7.94625 12.0087L6.92555 13.0366L5.98926 12.0166V11.5541C6.28473 11.6252 6.58787 11.6608 6.89101 11.6608C7.24788 11.6608 7.6009 11.6134 7.94625 11.5185V12.0087ZM8.1266 10.7989C6.30775 11.4987 4.2817 10.5459 3.6025 8.67196C3.45669 8.2687 3.37994 7.84172 3.37994 7.41078V5.39845C3.9939 5.39845 5.34077 5.20472 6.43438 3.78146H10.4021V7.41078C10.3982 8.91707 9.49266 10.2652 8.1266 10.7989ZM10.6093 14.8118C10.8395 15.0529 10.8357 15.4404 10.6055 15.6776C10.3714 15.9148 9.99534 15.9108 9.7651 15.6736C9.53487 15.4325 9.53871 15.045 9.76894 14.8078C9.88022 14.6932 10.0299 14.6299 10.1872 14.6299C10.3484 14.6259 10.498 14.6932 10.6093 14.8118Z" fill="#EA5C10"/>
</svg>
