<svg width="17" height="16" viewBox="0 0 17 16" fill="none" xmlns="http://www.w3.org/2000/svg">
<path d="M16.2845 14.8619L11.7345 10.3119C12.6159 9.22325 13.1465 7.83992 13.1465 6.33328C13.1465 2.84132 10.3052 0 6.81323 0C3.32127 0 0.47998 2.84128 0.47998 6.33325C0.47998 9.82521 3.3213 12.6665 6.81326 12.6665C8.3199 12.6665 9.70323 12.1359 10.7919 11.2545L15.3418 15.8045C15.4718 15.9345 15.6425 15.9998 15.8132 15.9998C15.9839 15.9998 16.1545 15.9345 16.2845 15.8045C16.5452 15.5438 16.5452 15.1225 16.2845 14.8619ZM6.81326 11.3332C4.05595 11.3332 1.81331 9.09057 1.81331 6.33325C1.81331 3.57593 4.05595 1.3333 6.81326 1.3333C9.57058 1.3333 11.8132 3.57593 11.8132 6.33325C11.8132 9.09057 9.57055 11.3332 6.81326 11.3332Z" fill="#7A7A7A"/>
</svg>
