<svg width="48" height="48" viewBox="0 0 48 48" fill="none" xmlns="http://www.w3.org/2000/svg">
<path d="M47.0625 0H9.1875C8.66981 0 8.25 0.419719 8.25 0.9375V5.0625H5.0625C4.54481 5.0625 4.125 5.48231 4.125 6V11.0625H0.9375C0.419719 11.0625 0 11.4823 0 12V42.9375C0 45.7289 2.27109 48 5.0625 48H42.9375C45.7289 48 48 45.7289 48 42.9375V0.9375C48 0.419719 47.5802 0 47.0625 0ZM46.125 42.9375C46.125 44.6951 44.6951 46.125 42.9375 46.125H8.99175C9.69956 45.2541 10.125 44.1447 10.125 42.9375V30.2815C10.125 29.7638 9.70519 29.344 9.1875 29.344C8.66981 29.344 8.25 29.7638 8.25 30.2815V42.9375C8.25 44.6951 6.82013 46.125 5.0625 46.125C3.30488 46.125 1.875 44.6951 1.875 42.9375V12.9375H4.125V42C4.125 42.5177 4.54481 42.9375 5.0625 42.9375C5.58019 42.9375 6 42.5177 6 42V6.9375H8.25V21.844C8.25 22.3618 8.66981 22.7815 9.1875 22.7815C9.70519 22.7815 10.125 22.3618 10.125 21.844V1.875H46.125V42.9375Z" fill="#7B549E"/>
<path d="M13.6875 14.8125H42.5625C43.0802 14.8125 43.5 14.3928 43.5 13.875V7.125C43.5 6.60731 43.0802 6.1875 42.5625 6.1875H13.6875C13.1697 6.1875 12.75 6.60731 12.75 7.125V13.875C12.75 14.3928 13.1697 14.8125 13.6875 14.8125ZM14.625 8.0625H41.625V12.9375H14.625V8.0625Z" fill="#7B549E"/>
<path d="M13.6875 37.3125H28.125C28.6427 37.3125 29.0625 36.8927 29.0625 36.375V18.375C29.0625 17.8572 28.6427 17.4375 28.125 17.4375H13.6875C13.1697 17.4375 12.75 17.8572 12.75 18.375V36.375C12.75 36.8927 13.1697 37.3125 13.6875 37.3125ZM14.625 19.3125H27.1875V35.4375H14.625V19.3125Z" fill="#7B549E"/>
<path d="M42.5625 17.4375H32.625C32.1073 17.4375 31.6875 17.8572 31.6875 18.375C31.6875 18.8928 32.1073 19.3125 32.625 19.3125H42.5625C43.0802 19.3125 43.5 18.8928 43.5 18.375C43.5 17.8572 43.0802 17.4375 42.5625 17.4375Z" fill="#7B549E"/>
<path d="M42.5625 21.9375H32.625C32.1073 21.9375 31.6875 22.3572 31.6875 22.875C31.6875 23.3928 32.1073 23.8125 32.625 23.8125H42.5625C43.0802 23.8125 43.5 23.3928 43.5 22.875C43.5 22.3572 43.0802 21.9375 42.5625 21.9375Z" fill="#7B549E"/>
<path d="M42.5625 26.4375H32.625C32.1073 26.4375 31.6875 26.8573 31.6875 27.375C31.6875 27.8927 32.1073 28.3125 32.625 28.3125H42.5625C43.0802 28.3125 43.5 27.8927 43.5 27.375C43.5 26.8573 43.0802 26.4375 42.5625 26.4375Z" fill="#7B549E"/>
<path d="M42.5625 30.9375H32.625C32.1073 30.9375 31.6875 31.3573 31.6875 31.875C31.6875 32.3927 32.1073 32.8125 32.625 32.8125H42.5625C43.0802 32.8125 43.5 32.3927 43.5 31.875C43.5 31.3573 43.0802 30.9375 42.5625 30.9375Z" fill="#7B549E"/>
<path d="M42.5625 35.4375H32.625C32.1073 35.4375 31.6875 35.8573 31.6875 36.375C31.6875 36.8927 32.1073 37.3125 32.625 37.3125H42.5625C43.0802 37.3125 43.5 36.8927 43.5 36.375C43.5 35.8573 43.0802 35.4375 42.5625 35.4375Z" fill="#7B549E"/>
<path d="M13.6875 41.8125H42.5625C43.0802 41.8125 43.5 41.3927 43.5 40.875C43.5 40.3573 43.0802 39.9375 42.5625 39.9375H13.6875C13.1697 39.9375 12.75 40.3573 12.75 40.875C12.75 41.3927 13.1697 41.8125 13.6875 41.8125Z" fill="#7B549E"/>
<path d="M9.23438 25.125C8.98781 25.125 8.74594 25.2252 8.57156 25.3997C8.39719 25.5741 8.29688 25.8159 8.29688 26.0625C8.29688 26.31 8.39709 26.5509 8.57156 26.7252C8.74594 26.9005 8.98781 27 9.23438 27C9.48094 27 9.72281 26.9006 9.89709 26.7252C10.0715 26.5509 10.1719 26.3091 10.1719 26.0625C10.1719 25.8159 10.0716 25.5741 9.89709 25.3997C9.72281 25.2252 9.48094 25.125 9.23438 25.125Z" fill="#7B549E"/>
</svg>
