<svg width="29" height="36" viewBox="0 0 29 36" fill="none" xmlns="http://www.w3.org/2000/svg">
<path d="M24.7982 5.08566H21.5262V3.66912C21.5262 3.21081 21.0096 3.00252 20.536 3.00252H17.996C17.3933 1.33597 15.8864 0.502698 14.1643 0.502698C12.4612 0.440734 10.9121 1.45136 10.3327 3.00252H7.83563C7.36205 3.00252 6.88847 3.21081 6.88847 3.66912V5.08566H3.61642C1.67743 5.10568 0.0911398 6.58593 0 8.46038V32.3336C0 34.1668 1.7221 35.5 3.61642 35.5H24.7982C26.6925 35.5 28.4146 34.1668 28.4146 32.3336V8.46046C28.3235 6.58593 26.7372 5.10568 24.7982 5.08566ZM8.61049 4.66906H10.9784C11.3917 4.62026 11.7237 4.31594 11.7964 3.91912C12.0514 2.84462 13.0255 2.07331 14.1643 2.04428C15.2926 2.07738 16.2521 2.85108 16.4891 3.91912C16.5663 4.32966 16.9203 4.63788 17.3502 4.66906H19.8042V8.00215H8.61049V4.66906ZM26.6925 32.3337C26.6925 33.2503 25.7453 33.8335 24.7982 33.8335H3.61642C2.66926 33.8335 1.7221 33.2503 1.7221 32.3337V8.46046C1.80994 7.50637 2.62674 6.76975 3.61642 6.75228H6.88839V8.87713C6.93388 9.34397 7.35167 9.69318 7.83555 9.66878H20.536C21.0287 9.69486 21.4596 9.35043 21.5261 8.87713V6.7522H24.7981C25.7877 6.76975 26.6046 7.50629 26.6924 8.46038V32.3337H26.6925Z" fill="#7B549E"/>
<path d="M10.8914 19.1265C10.5685 18.797 10.0323 18.7785 9.6859 19.0849L6.93052 21.6263L5.76812 20.4597C5.44518 20.1303 4.90905 20.1117 4.56262 20.4181C4.22913 20.7562 4.22913 21.2882 4.56262 21.6263L6.32773 23.3762C6.48051 23.5417 6.70119 23.6333 6.93044 23.6262C7.15755 23.6231 7.37419 23.5332 7.53315 23.3762L10.8912 20.2931C11.2241 19.9976 11.2464 19.4967 10.9409 19.1746C10.9253 19.1578 10.9087 19.1418 10.8914 19.1265Z" fill="#7B549E"/>
<path d="M23.2474 20.918H13.3454C12.8699 20.918 12.4844 21.291 12.4844 21.7512C12.4844 22.2115 12.8699 22.5845 13.3454 22.5845H23.2474C23.723 22.5845 24.1085 22.2115 24.1085 21.7512C24.1085 21.291 23.723 20.918 23.2474 20.918Z" fill="#7B549E"/>
<path d="M10.8914 12.4605C10.5685 12.131 10.0323 12.1124 9.6859 12.4188L6.93052 14.9603L5.76812 13.7937C5.44518 13.4642 4.90905 13.4457 4.56262 13.752C4.22913 14.0902 4.22913 14.6222 4.56262 14.9603L6.32773 16.7102C6.48051 16.8757 6.70119 16.9673 6.93044 16.9602C7.15755 16.9571 7.37419 16.8672 7.53315 16.7102L10.8912 13.6271C11.2241 13.3315 11.2464 12.8307 10.9409 12.5086C10.9253 12.4918 10.9087 12.4758 10.8914 12.4605Z" fill="#7B549E"/>
<path d="M23.2474 14.2513H13.3454C12.8699 14.2513 12.4844 14.6244 12.4844 15.0846C12.4844 15.5448 12.8699 15.9179 13.3454 15.9179H23.2474C23.723 15.9179 24.1085 15.5448 24.1085 15.0846C24.1085 14.6244 23.723 14.2513 23.2474 14.2513Z" fill="#7B549E"/>
<path d="M10.8914 25.7923C10.5685 25.4629 10.0323 25.4444 9.6859 25.7507L6.93052 28.2922L5.76812 27.1255C5.44518 26.7961 4.90905 26.7776 4.56262 27.0839C4.22913 27.422 4.22913 27.954 4.56262 28.2922L6.32773 30.042C6.48051 30.2076 6.70119 30.2991 6.93044 30.292C7.15755 30.2889 7.37419 30.1991 7.53315 30.042L10.8912 26.959C11.2241 26.6634 11.2464 26.1626 10.9409 25.8405C10.9253 25.8238 10.9087 25.8077 10.8914 25.7923Z" fill="#7B549E"/>
<path d="M23.2474 27.5839H13.3454C12.8699 27.5839 12.4844 27.9569 12.4844 28.4171C12.4844 28.8774 12.8699 29.2504 13.3454 29.2504H23.2474C23.723 29.2504 24.1085 28.8774 24.1085 28.4171C24.1085 27.9569 23.723 27.5839 23.2474 27.5839Z" fill="#7B549E"/>
</svg>
