<svg width="15" height="14" viewBox="0 0 15 14" fill="none" xmlns="http://www.w3.org/2000/svg">
<g clip-path="url(#clip0)">
<path d="M10.4333 14C9.98141 14 9.53332 13.9201 9.09515 13.7609C7.16482 13.0597 5.37306 11.9176 3.91351 10.4581C2.45396 8.99854 1.31186 7.20675 0.610654 5.27642C0.385323 4.65607 0.318826 4.0157 0.413076 3.37304C0.501366 2.77107 0.734543 2.18667 1.08743 1.68302C1.44187 1.17715 1.91441 0.756406 2.45393 0.466274C3.02927 0.156892 3.65725 0 4.32047 0C4.52675 0 4.70502 0.144123 4.74825 0.345802L5.43493 3.55033C5.46602 3.69544 5.42142 3.84642 5.31651 3.95137L4.14316 5.12469C5.25004 7.32539 7.04612 9.12147 9.24682 10.2284L10.4201 9.055C10.5251 8.95009 10.6761 8.90555 10.8212 8.93658L14.0257 9.62327C14.2274 9.66649 14.3715 9.84477 14.3715 10.051C14.3715 10.7143 14.2146 11.3423 13.9052 11.9176C13.6151 12.4571 13.1943 12.9297 12.6885 13.2841C12.1848 13.637 11.6004 13.8702 10.9984 13.9585C10.8098 13.9862 10.6212 14 10.4333 14ZM3.97093 0.894104C3.0961 0.990678 2.31962 1.44921 1.804 2.18514C1.22417 3.01267 1.08896 4.03049 1.43304 4.9777C2.78114 8.6888 5.68277 11.5904 9.39387 12.9385C10.341 13.2826 11.3589 13.1474 12.1864 12.5676C12.9224 12.0519 13.3809 11.2755 13.4775 10.4006L10.8706 9.84203L9.64521 11.0674C9.51481 11.1978 9.31668 11.2325 9.14984 11.154C6.54709 9.93128 4.44029 7.82448 3.21753 5.22173C3.13914 5.05486 3.17375 4.85673 3.30415 4.72636L4.52954 3.50098L3.97093 0.894104Z" fill="#EA5C10"/>
</g>
<defs>
<clipPath id="clip0">
<rect width="14" height="14" fill="white" transform="translate(0.371094)"/>
</clipPath>
</defs>
</svg>
