<svg width="28" height="28" viewBox="0 0 28 28" fill="none" xmlns="http://www.w3.org/2000/svg">
<g clip-path="url(#clip0)">
<path d="M20.1235 28C19.2197 28 18.3235 27.8402 17.4471 27.5218C13.5865 26.1194 10.0029 23.8352 7.08385 20.9161C4.16475 17.9971 1.88055 14.4135 0.478144 10.5528C0.0274828 9.31213 -0.105512 8.0314 0.0829883 6.74608C0.259567 5.54213 0.725923 4.37334 1.43169 3.36604C2.14058 2.35431 3.08565 1.51281 4.1647 0.932548C5.31538 0.313784 6.57134 0 7.89778 0C8.31033 0 8.66688 0.288246 8.75333 0.691604L10.1267 7.10066C10.1889 7.39088 10.0997 7.69285 9.88986 7.90273L7.54315 10.2494C9.75692 14.6508 13.3491 18.2429 17.7505 20.4567L20.0971 18.11C20.307 17.9002 20.609 17.8111 20.8992 17.8732L27.3083 19.2465C27.7117 19.333 27.9999 19.6895 27.9999 20.1021C27.9999 21.4285 27.6861 22.6845 27.0673 23.8352C26.487 24.9143 25.6455 25.8593 24.6338 26.5682C23.6265 27.274 22.4577 27.7404 21.2537 27.9169C20.8765 27.9723 20.4992 27.9999 20.1235 28ZM7.19869 1.78821C5.44903 1.98136 3.89608 2.89843 2.86483 4.37028C1.70517 6.02533 1.43475 8.06099 2.12291 9.9554C4.81911 17.3776 10.6224 23.1809 18.0446 25.8771C19.9389 26.5652 21.9746 26.2949 23.6297 25.1351C25.1015 24.1039 26.0186 22.5509 26.2118 20.8013L20.998 19.6841L18.5472 22.1348C18.2865 22.3956 17.8902 22.4649 17.5565 22.3081C12.351 19.8626 8.13741 15.649 5.69189 10.4435C5.53511 10.1097 5.60434 9.71347 5.86513 9.45273L8.31591 7.00196L7.19869 1.78821Z" fill="#7B549E"/>
</g>
<defs>
<clipPath id="clip0">
<rect width="28" height="28" fill="white"/>
</clipPath>
</defs>
</svg>
