<svg width="33" height="40" viewBox="0 0 33 40" fill="none" xmlns="http://www.w3.org/2000/svg">
<path d="M28.251 5.45742H24.5554V3.85745C24.5554 3.3398 23.9719 3.10453 23.437 3.10453H20.568C19.8873 1.22218 18.1853 0.281001 16.2402 0.281001C14.3165 0.211014 12.5668 1.35251 11.9124 3.10453H9.09198C8.55707 3.10453 8.02217 3.3398 8.02217 3.85745V5.45742H4.32642C2.13635 5.48003 0.344641 7.15196 0.241699 9.26913V36.2337C0.241699 38.3043 2.18679 39.8102 4.32642 39.8102H28.251C30.3907 39.8102 32.3358 38.3043 32.3358 36.2337V9.26922C32.2328 7.15196 30.4411 5.48003 28.251 5.45742ZM9.96717 4.98687H12.6417C13.1086 4.93175 13.4836 4.58803 13.5657 4.13983C13.8536 2.92618 14.9539 2.05499 16.2402 2.02221C17.5146 2.05959 18.5983 2.93348 18.866 4.13983C18.9532 4.60352 19.353 4.95166 19.8386 4.98687H22.6104V8.75157H9.96717V4.98687ZM30.3907 36.2338C30.3907 37.2691 29.3208 37.9279 28.251 37.9279H4.32642C3.2566 37.9279 2.18679 37.2691 2.18679 36.2338V9.26922C2.28601 8.19159 3.20858 7.35958 4.32642 7.33986H8.02208V9.73986C8.07345 10.2671 8.54535 10.6616 9.09189 10.634H23.4369C23.9935 10.6635 24.4802 10.2744 24.5553 9.73986V7.33977H28.2509C29.3687 7.35958 30.2913 8.1915 30.3906 9.26913V36.2338H30.3907Z" fill="#EA5C10"/>
<path d="M12.5397 21.3164C12.1749 20.9443 11.5694 20.9234 11.1781 21.2694L8.06592 24.14L6.753 22.8223C6.38823 22.4502 5.78268 22.4293 5.39139 22.7753C5.01472 23.1572 5.01472 23.758 5.39139 24.14L7.38507 26.1164C7.55764 26.3034 7.80689 26.4068 8.06583 26.3988C8.32235 26.3953 8.56704 26.2938 8.74659 26.1164L12.5395 22.6341C12.9155 22.3003 12.9407 21.7346 12.5956 21.3708C12.578 21.3518 12.5592 21.3337 12.5397 21.3164Z" fill="#EA5C10"/>
<path d="M26.4962 23.34H15.3119C14.7748 23.34 14.3394 23.7614 14.3394 24.2812C14.3394 24.801 14.7748 25.2224 15.3119 25.2224H26.4962C27.0333 25.2224 27.4687 24.801 27.4687 24.2812C27.4687 23.7614 27.0333 23.34 26.4962 23.34Z" fill="#EA5C10"/>
<path d="M12.5397 13.7872C12.1749 13.4151 11.5694 13.3941 11.1781 13.7402L8.06592 16.6107L6.753 15.293C6.38823 14.9209 5.78268 14.9 5.39139 15.246C5.01472 15.6279 5.01472 16.2288 5.39139 16.6107L7.38507 18.5872C7.55764 18.7742 7.80689 18.8776 8.06583 18.8696C8.32235 18.8661 8.56704 18.7645 8.74659 18.5872L12.5395 15.1049C12.9155 14.7711 12.9407 14.2054 12.5956 13.8416C12.578 13.8226 12.5592 13.8045 12.5397 13.7872Z" fill="#EA5C10"/>
<path d="M26.4962 15.8101H15.3119C14.7748 15.8101 14.3394 16.2315 14.3394 16.7513C14.3394 17.2711 14.7748 17.6925 15.3119 17.6925H26.4962C27.0333 17.6925 27.4687 17.2711 27.4687 16.7513C27.4687 16.2315 27.0333 15.8101 26.4962 15.8101Z" fill="#EA5C10"/>
<path d="M12.5397 28.8453C12.1749 28.4732 11.5694 28.4523 11.1781 28.7982L8.06592 31.6688L6.753 30.3511C6.38823 29.979 5.78268 29.9581 5.39139 30.3041C5.01472 30.686 5.01472 31.2869 5.39139 31.6688L7.38507 33.6453C7.55764 33.8323 7.80689 33.9357 8.06583 33.9276C8.32235 33.9241 8.56704 33.8226 8.74659 33.6453L12.5395 30.1629C12.9155 29.8291 12.9407 29.2635 12.5956 28.8997C12.578 28.8808 12.5592 28.8626 12.5397 28.8453Z" fill="#EA5C10"/>
<path d="M26.4962 30.8689H15.3119C14.7748 30.8689 14.3394 31.2903 14.3394 31.8101C14.3394 32.3299 14.7748 32.7512 15.3119 32.7512H26.4962C27.0333 32.7512 27.4687 32.3299 27.4687 31.8101C27.4687 31.2903 27.0333 30.8689 26.4962 30.8689Z" fill="#EA5C10"/>
</svg>
