<svg width="31" height="40" viewBox="0 0 31 40" fill="none" xmlns="http://www.w3.org/2000/svg">
<path d="M23.7684 28.2585C23.7589 28.2585 23.7493 28.2585 23.7303 28.2585H19.7813V26.8827C23.2438 25.3004 25.5807 21.8706 25.8574 17.9788C27.3072 17.7135 28.2706 16.2885 28.0035 14.7947C27.9082 14.2443 27.6506 13.7333 27.2691 13.3402C26.8875 12.9569 26.4106 12.7014 25.886 12.5834V8.21014H27.4026C27.8128 8.21997 28.1562 7.89566 28.1657 7.47307C28.1657 7.46324 28.1657 7.46324 28.1657 7.45341C28.1562 3.35529 24.9321 0.043374 20.9545 0.0532016H14.3157C12.9612 0.043374 11.6926 0.750964 10.9581 1.92045C8.51621 2.03838 7.14265 3.43391 6.40818 4.63288C5.90263 5.46823 5.55924 6.39203 5.38755 7.35514C5.37801 7.39445 5.37801 7.42393 5.36847 7.46324V12.5933C4.85339 12.7014 4.36692 12.9667 3.99492 13.35C2.95521 14.431 2.96475 16.1607 4.01399 17.2319C4.39554 17.625 4.882 17.8805 5.41617 17.9788C5.58786 20.5242 6.64664 22.9123 8.40174 24.7009C9.38422 25.723 10.5575 26.5289 11.8643 27.0399V28.2585H7.95343C3.95676 28.2585 0.704102 31.5606 0.704102 35.6686V38.7348C0.704102 39.1672 1.04749 39.521 1.46719 39.521C1.88689 39.521 2.23028 39.1672 2.23028 38.7348V35.6686C2.23981 32.5729 4.56723 29.998 7.57189 29.7916V30.7941C5.89309 31.1773 4.71031 32.7203 4.71031 34.4893V38.6758C4.71985 39.1082 5.06324 39.462 5.48293 39.4522H6.64664C7.06634 39.4522 7.40973 39.0984 7.40973 38.666C7.40973 38.2336 7.06634 37.8798 6.64664 37.8798H6.23648V34.4794C6.24602 33.2706 7.19034 32.2879 8.36359 32.278H8.39221C9.57499 32.278 10.5384 33.2608 10.5384 34.4794V37.8896H9.85161C9.43191 37.8896 9.08852 38.2434 9.08852 38.6758C9.08852 39.1082 9.43191 39.462 9.85161 39.462H11.2919C11.7116 39.462 12.0455 39.1181 12.055 38.6955C12.055 38.6955 12.055 38.6955 12.055 38.6856V34.4991C12.0646 32.6908 10.815 31.138 9.09806 30.7941V29.8309H12.2839L14.9166 32.6515V37.7619C14.9166 38.1943 15.26 38.5481 15.6797 38.5481C16.0994 38.5481 16.4428 38.1943 16.4428 37.7619V32.6711L19.3616 29.8309H23.0244V33.703C21.7176 34.0765 20.821 35.3049 20.8019 36.6906C20.7828 38.4105 22.1182 39.806 23.7875 39.8257C25.4567 39.8453 26.8112 38.4694 26.8303 36.7496C26.8398 35.9044 26.5155 35.0887 25.9241 34.4991C25.5521 34.0961 25.0657 33.8111 24.541 33.6932V29.8408C27.3358 30.2732 29.4057 32.7498 29.4057 35.6686V38.7348C29.4057 39.1672 29.7491 39.521 30.1688 39.521C30.5885 39.521 30.9319 39.1672 30.9319 38.7348V35.6686C30.9414 31.5803 27.7269 28.2585 23.7684 28.2585ZM5.36847 16.3226C4.98321 16.1242 4.74846 15.7246 4.74846 15.2762C4.74846 14.9617 4.86293 14.6669 5.07278 14.4507C5.15862 14.3622 5.26355 14.2935 5.36847 14.2247V16.3226ZM26.1817 14.4507C26.3915 14.6669 26.5155 14.9716 26.5155 15.286C26.5155 15.7283 26.2675 16.141 25.8764 16.3376V14.2345C25.9909 14.2935 26.0958 14.3622 26.1817 14.4507ZM12.1027 3.0408C12.2267 2.78529 12.3889 2.55925 12.5796 2.35287C13.0375 1.88114 13.667 1.6158 14.3157 1.62562H20.9545C23.8352 1.62562 26.2198 3.7877 26.5918 6.63772H14.3157C14.2871 6.63772 14.268 6.64755 14.2394 6.65737C14.2107 6.65737 14.1917 6.65737 14.1631 6.65737C12.8658 6.57875 11.8547 5.47806 11.8547 4.1415C11.8547 3.75822 11.9406 3.38477 12.1027 3.0408ZM6.90419 7.52221C6.99957 7.31583 7.13311 6.3822 7.69589 5.46823C8.33497 4.4265 9.24114 3.7877 10.3667 3.5715C10.3381 3.75822 10.3285 3.94495 10.3285 4.1415C10.3285 5.78271 11.2824 7.27652 12.7513 7.91531C10.5288 10.3427 8.04882 10.6572 6.90419 10.6671V7.52221ZM18.2551 28.6615L15.7178 31.2166L13.3904 28.6811V27.5313C14.1249 27.7082 14.8784 27.7966 15.632 27.7966C16.5191 27.7966 17.3966 27.6787 18.2551 27.4428V28.6615ZM18.7034 25.6542C14.1821 27.3937 9.14575 25.0252 7.45742 20.3669C7.09496 19.3645 6.90419 18.3031 6.90419 17.2319V12.2296C8.43036 12.2296 11.7784 11.7481 14.4969 8.21014H24.3598V17.2319C24.3503 20.9762 22.0992 24.3275 18.7034 25.6542ZM24.8749 35.6293C25.4472 36.2287 25.4377 37.1918 24.8654 37.7815C24.2835 38.3712 23.3487 38.3613 22.7764 37.7717C22.2041 37.1722 22.2136 36.2091 22.7859 35.6194C23.0626 35.3344 23.4346 35.1772 23.8256 35.1772C24.2263 35.1674 24.5983 35.3344 24.8749 35.6293Z" fill="#EA5C10"/>
</svg>
