<svg width="30" height="35" viewBox="0 0 30 35" fill="none" xmlns="http://www.w3.org/2000/svg">
<path d="M0.342285 7.22842C0.342285 5.26029 0.947864 3.63279 2.15902 2.34594C3.38532 1.04394 4.93712 0.392944 6.81441 0.392944C8.69171 0.392944 10.2359 1.04394 11.4471 2.34594C12.6734 3.63279 13.2865 5.3057 13.2865 7.36467V8.97703C13.2865 10.9149 12.681 12.5348 11.4698 13.8368C10.2738 15.1237 8.73713 15.7671 6.85983 15.7671C4.99767 15.7671 3.44588 15.1312 2.20444 13.8595C0.963004 12.5878 0.342285 10.9073 0.342285 8.81806V7.22842ZM2.54508 8.97703C2.54508 10.385 2.93114 11.5432 3.70325 12.4515C4.4905 13.3599 5.5427 13.8141 6.85983 13.8141C8.14669 13.8141 9.1686 13.3599 9.92557 12.4515C10.6977 11.528 11.0837 10.3396 11.0837 8.88619V7.22842C11.0837 5.82045 10.6901 4.66228 9.90287 3.75391C9.11561 2.8304 8.08613 2.36865 6.81441 2.36865C5.55784 2.36865 4.52835 2.82283 3.72596 3.7312C2.93871 4.63957 2.54508 5.85073 2.54508 7.36467V8.97703ZM16.9881 25.8273C16.9881 23.8591 17.5937 22.2316 18.8049 20.9448C20.0312 19.6579 21.5754 19.0145 23.4376 19.0145C25.2997 19.0145 26.8439 19.6579 28.0702 20.9448C29.3117 22.2165 29.9324 23.897 29.9324 25.9862V27.5986C29.9324 29.5667 29.3192 31.1942 28.0929 32.4811C26.8818 33.7679 25.3451 34.4114 23.483 34.4114C21.6208 34.4114 20.069 33.7755 18.8276 32.5038C17.6013 31.2169 16.9881 29.544 16.9881 27.485V25.8273ZM19.1682 27.5986C19.1682 29.0217 19.5543 30.1874 20.3264 31.0958C21.1136 32.0042 22.1658 32.4584 23.483 32.4584C24.785 32.4584 25.8145 32.0042 26.5714 31.0958C27.3435 30.1723 27.7296 28.9687 27.7296 27.485V25.8273C27.7296 24.3739 27.336 23.2081 26.5487 22.33C25.7766 21.4368 24.7396 20.9902 23.4376 20.9902C22.1658 20.9902 21.1364 21.4368 20.3491 22.33C19.5619 23.2233 19.1682 24.4193 19.1682 25.9181V27.5986ZM7.72278 31.1866L6.01959 30.0966L22.1658 4.25351L23.869 5.34355L7.72278 31.1866Z" fill="#EA5C10"/>
</svg>
