<svg width="39" height="40" viewBox="0 0 39 40" fill="none" xmlns="http://www.w3.org/2000/svg">
<g clip-path="url(#clip0)">
<path d="M9.11166 11.9075H26.8753C27.3217 11.9075 27.6828 11.5463 27.6828 11.1C27.6828 10.6537 27.3217 10.2925 26.8753 10.2925H9.11166C8.66535 10.2925 8.3042 10.6537 8.3042 11.1C8.30427 11.5464 8.66543 11.9075 9.11166 11.9075Z" fill="#EA5C10"/>
<path d="M18.8009 19.9819H9.11166C8.66535 19.9819 8.3042 20.3431 8.3042 20.7894C8.3042 21.2357 8.66535 21.5969 9.11166 21.5969H18.8009C19.2473 21.5969 19.6084 21.2357 19.6084 20.7894C19.6084 20.3431 19.2473 19.9819 18.8009 19.9819Z" fill="#EA5C10"/>
<path d="M35.8951 5.44804C35.8483 5.44804 35.803 5.45977 35.7564 5.46197V5.44804C35.7564 3.66681 34.3071 2.21826 32.5266 2.21826H3.45878C1.67831 2.21826 0.229004 3.66681 0.229004 5.44804V36.9381C0.229004 37.2646 0.42612 37.5595 0.72732 37.6841C0.82671 37.7259 0.932308 37.7456 1.03639 37.7456C1.24615 37.7456 1.45273 37.6636 1.6073 37.5091L9.44516 29.6712H32.5266C34.3071 29.6712 35.7564 28.2227 35.7564 26.4414V13.0489L38.0809 10.7248C38.0809 10.7248 38.0809 10.7248 38.0809 10.724C38.6565 10.1484 38.9861 9.35198 38.9861 8.53899C38.9861 6.83429 37.5999 5.44804 35.8951 5.44804ZM34.1414 26.4414C34.1414 27.3316 33.4175 28.0563 32.5266 28.0563H9.11081C8.89635 28.0563 8.69129 28.1414 8.5399 28.2928L1.84386 34.9889V5.44804C1.84386 4.55784 2.56775 3.83319 3.45871 3.83319H32.5265C33.4176 3.83319 34.1414 4.55784 34.1414 5.44804V5.99957C33.9881 6.10494 33.8415 6.22084 33.7094 6.35323L24.9239 15.1373H9.11081C8.66449 15.1373 8.30334 15.4985 8.30334 15.9448C8.30334 16.3911 8.66449 16.7522 9.11081 16.7522H23.6284L22.8531 20.631C22.7995 20.8959 22.883 21.1696 23.0739 21.3603C23.2269 21.5133 23.4334 21.5969 23.6448 21.5969C23.6969 21.5969 23.7505 21.5913 23.8025 21.5811L27.8381 20.7737C27.9958 20.7421 28.1393 20.6656 28.2513 20.5528L34.1414 14.6636V26.4414ZM27.2829 19.2384L24.6746 19.7604L25.1966 17.1488L32.5262 9.81919L34.6145 11.9075L27.2829 19.2384ZM36.9391 9.58301L35.7563 10.7658L33.6679 8.67737L34.851 7.49422C35.1254 7.22057 35.5055 7.06289 35.895 7.06289C36.7088 7.06289 37.3711 7.72525 37.3711 8.53899C37.3712 8.92694 37.2135 9.30785 36.9391 9.58301Z" fill="#EA5C10"/>
</g>
<defs>
<clipPath id="clip0">
<rect width="38.7571" height="38.7571" fill="white" transform="translate(0.229004 0.603394)"/>
</clipPath>
</defs>
</svg>
