<svg width="8" height="11" viewBox="0 0 8 11" fill="none" xmlns="http://www.w3.org/2000/svg">
<path d="M4 0C1.79442 0 0 1.71526 0 3.82355C0 6.47344 4.00393 11 4.00393 11C4.00393 11 8 6.34313 8 3.82355C8 1.71526 6.20565 0 4 0ZM5.20688 4.94309C4.8741 5.26112 4.43709 5.42017 4 5.42017C3.56299 5.42017 3.12583 5.26112 2.79319 4.94309C2.12769 4.30701 2.12769 3.272 2.79319 2.63586C3.11543 2.3277 3.54409 2.15797 4 2.15797C4.45591 2.15797 4.8845 2.32776 5.20688 2.63586C5.87238 3.272 5.87238 4.30701 5.20688 4.94309Z" fill="white" fill-opacity="0.75"/>
</svg>
