<svg width="32" height="37" viewBox="0 0 32 37" fill="none" xmlns="http://www.w3.org/2000/svg">
<path d="M21.9333 25.5435H10.066C9.45407 25.5435 8.95801 26.0288 8.95801 26.6274C8.95801 27.2261 9.45407 27.7114 10.066 27.7114H21.9333C22.5452 27.7114 23.0413 27.2261 23.0413 26.6274C23.0413 26.0288 22.5452 25.5435 21.9333 25.5435Z" fill="#9F9F9F"/>
<path d="M29.0541 0H2.94584C2.33396 0 1.83789 0.485335 1.83789 1.08398V32.723C1.83789 33.0104 1.95467 33.2861 2.16245 33.4895L5.42603 36.6825C5.85865 37.1058 6.56021 37.1058 6.9929 36.6825L9.47301 34.256L11.9531 36.6825C12.1608 36.8857 12.4426 37 12.7365 37C13.0304 37 13.3122 36.8858 13.52 36.6825L16 34.256L18.4801 36.6825C18.6879 36.8857 18.9696 37 19.2635 37C19.5574 37 19.8392 36.8857 20.0469 36.6825L22.527 34.256L25.0071 36.6825C25.2234 36.8941 25.5069 37 25.7905 37C26.0741 37 26.3576 36.8942 26.574 36.6825L29.8375 33.4895C30.0453 33.2862 30.1621 33.0104 30.1621 32.723V1.08398C30.162 0.485335 29.666 0 29.0541 0ZM25.7905 34.383L23.3104 31.9565C23.1026 31.7532 22.8207 31.639 22.5269 31.639C22.233 31.639 21.9512 31.7532 21.7434 31.9565L19.2634 34.383L16.7833 31.9565C16.3507 31.5332 15.6491 31.5332 15.2164 31.9565L12.7363 34.383L10.2563 31.9565C10.0485 31.7532 9.76669 31.639 9.47279 31.639C9.17896 31.639 8.89717 31.7532 8.68939 31.9565L6.20928 34.383L4.05365 32.274V2.16796H27.946V32.274H27.9461L25.7905 34.383Z" fill="#9F9F9F"/>
<path d="M11.7287 7.915H19.8137V9.805H11.7287V7.915ZM16.9037 18.625H14.6387V12.745H11.7287V10.855H19.8137V12.745H16.9037V18.625Z" fill="#9F9F9F"/>
</svg>
