<svg width="39" height="39" viewBox="0 0 39 39" fill="none" xmlns="http://www.w3.org/2000/svg">
<g clip-path="url(#clip0)">
<path d="M30.919 4.03851L26.7328 1.62164C26.257 1.34705 25.7029 1.2741 25.1724 1.41626C24.6418 1.55842 24.1983 1.89868 23.9237 2.3744C23.3568 3.35639 23.6945 4.61648 24.6764 5.18346L24.9886 5.36371L23.4973 7.94682L20.2881 6.094C19.8124 5.81933 19.2583 5.74637 18.7277 5.88854C18.1972 6.03069 17.7536 6.37097 17.479 6.84668C17.0127 7.65443 17.1589 8.65009 17.7718 9.29363L10.1537 22.4884C9.26093 24.0348 9.79266 26.0192 11.339 26.9121L11.6659 27.1008L10.0428 29.9123C9.52702 30.8056 9.83418 31.952 10.7275 32.4678L10.9344 32.5872L8.06533 37.5567C7.89528 37.8512 7.99621 38.2279 8.29077 38.398C8.43801 38.483 8.60586 38.5003 8.75809 38.4595C8.91032 38.4187 9.04706 38.3198 9.13205 38.1726L12.0012 33.2031L12.2081 33.3225C12.6547 33.5804 13.1647 33.6325 13.6274 33.5085C14.0902 33.3845 14.5057 33.0844 14.7636 32.6378L16.3868 29.8263L16.7137 30.0151C17.4869 30.4614 18.3696 30.5517 19.1706 30.3371C19.9716 30.1224 20.6909 29.6029 21.1373 28.8298L21.9023 27.5048C22.0723 27.2103 21.9714 26.8336 21.6769 26.6636C21.3824 26.4935 21.0056 26.5944 20.8356 26.889L20.0706 28.2139C19.5174 29.1721 18.2878 29.5016 17.3296 28.9483L11.955 25.8453C11.1046 25.3543 10.75 24.3306 11.0677 23.4367L13.068 24.5915C13.2153 24.6766 13.3831 24.6939 13.5353 24.6531C13.6875 24.6123 13.8242 24.5133 13.9092 24.3661C14.0793 24.0716 13.9784 23.6949 13.6838 23.5248L11.6543 22.353L12.5188 20.8556L14.5483 22.0273C14.6956 22.1124 14.8634 22.1297 15.0157 22.0889C15.1679 22.0481 15.3046 21.9492 15.3896 21.8019C15.5597 21.5074 15.4588 21.1307 15.1642 20.9606L13.1347 19.7889L13.9992 18.2914L16.0288 19.4631C16.1761 19.5482 16.3439 19.5655 16.4961 19.5247C16.6483 19.4839 16.7851 19.385 16.8701 19.2377C17.0401 18.9432 16.9392 18.5665 16.6446 18.3964L14.6152 17.2247L15.4796 15.7273L17.5092 16.899C17.6565 16.9841 17.8243 17.0013 17.9765 16.9606C18.1287 16.9198 18.2655 16.8208 18.3505 16.6736C18.5205 16.3791 18.4196 16.0024 18.125 15.8323L16.0956 14.6606L16.575 13.8301C18.3276 13.4676 20.0858 14.5347 20.5548 16.2851C21.1038 18.3339 22.9499 19.6942 24.9732 19.7224L23.6071 22.0885C23.437 22.3831 23.538 22.7598 23.8325 22.9299C24.1271 23.0999 24.5038 22.999 24.6739 22.7045L28.7551 15.6356C29.0862 15.7165 29.4341 15.7137 29.7724 15.6231C30.303 15.4809 30.7465 15.1406 31.0211 14.665C31.2957 14.1893 31.3686 13.6352 31.2265 13.1046C31.0843 12.5741 30.7441 12.1306 30.2684 11.856L27.0592 10.0032L28.5506 7.42002L28.8628 7.60027C29.3538 7.88371 29.9143 7.941 30.4229 7.80471C30.9316 7.66843 31.3884 7.33855 31.6718 6.84752C32.2385 5.86565 31.9009 4.6055 30.919 4.03851ZM13.6969 32.0219C13.5207 32.3271 13.1291 32.432 12.8241 32.2558L11.3434 31.401C11.0383 31.2248 10.9334 30.8333 11.1095 30.5282L12.7327 27.7167L15.3201 29.2105L13.6969 32.0219ZM25.7242 18.4215C23.9716 18.7841 22.2135 17.7169 21.7444 15.9665C21.1955 13.9178 19.3493 12.5574 17.326 12.5292L18.7966 9.982L27.6468 15.0916L25.7242 18.4215ZM30.0365 13.4234C30.0935 13.6362 30.0642 13.8584 29.9541 14.0492C29.844 14.2399 29.6661 14.3763 29.4533 14.4334C29.2406 14.4904 29.0184 14.4611 28.8276 14.351L18.8792 8.60728C18.879 8.60719 18.879 8.60715 18.8788 8.60706L18.8475 8.58899C18.4537 8.36162 18.3183 7.85626 18.5457 7.46251C18.6558 7.27175 18.8337 7.13527 19.0464 7.07827C19.2592 7.02125 19.4814 7.05053 19.6722 7.16067L29.6523 12.9227C29.8431 13.0329 29.9795 13.2107 30.0365 13.4234ZM25.9923 9.38727L24.564 8.56263L26.0553 5.97952L27.4836 6.80416L25.9923 9.38727ZM30.6049 6.23172C30.3775 6.62553 29.8722 6.76093 29.4784 6.53356L25.2923 4.11669C24.8984 3.88932 24.763 3.38396 24.9904 2.99015C25.1005 2.7994 25.2783 2.66299 25.4911 2.60597C25.7039 2.54897 25.9261 2.57825 26.1169 2.68837L30.303 5.10524C30.6969 5.33261 30.8323 5.83796 30.6049 6.23172Z" fill="#7B549E"/>
<path d="M22.9127 25.3921C23.2413 25.304 23.4362 24.9663 23.3482 24.6378C23.2602 24.3092 22.9225 24.1143 22.5939 24.2023C22.2654 24.2903 22.0704 24.628 22.1584 24.9566C22.2465 25.2851 22.5842 25.4801 22.9127 25.3921Z" fill="#7B549E"/>
</g>
<defs>
<clipPath id="clip0">
<rect width="31.5327" height="31.5327" fill="white" transform="translate(0 8.16125) rotate(-15)"/>
</clipPath>
</defs>
</svg>
