<svg width="14" height="14" viewBox="0 0 14 14" fill="none" xmlns="http://www.w3.org/2000/svg">
<path d="M12.6 1.4H11.9V0.7C11.9 0.28 11.62 0 11.2 0C10.78 0 10.5 0.28 10.5 0.7V1.4H3.5V0.7C3.5 0.28 3.22 0 2.8 0C2.38 0 2.1 0.28 2.1 0.7V1.4H0.7C0.35 1.4 0 1.68 0 2.1V11.9C0 12.32 0.35 12.6 0.7 12.6H4.97C4.48 11.76 4.2 10.78 4.2 9.8C4.2 6.72 6.72 4.2 9.8 4.2C11.13 4.2 12.32 4.69 13.3 5.46V2.1C13.3 1.75 12.95 1.4 12.6 1.4Z" fill="#8252a2"/>
<path d="M9.8001 5.6001C7.4901 5.6001 5.6001 7.4901 5.6001 9.8001C5.6001 12.1101 7.4901 14.0001 9.8001 14.0001C12.1101 14.0001 14.0001 12.1101 14.0001 9.8001C14.0001 7.4901 12.1101 5.6001 9.8001 5.6001ZM11.2001 10.5001H9.8001C9.3801 10.5001 9.1001 10.2201 9.1001 9.8001V7.7001C9.1001 7.2801 9.3801 7.0001 9.8001 7.0001C10.2201 7.0001 10.5001 7.2801 10.5001 7.7001V9.1001H11.2001C11.6201 9.1001 11.9001 9.3801 11.9001 9.8001C11.9001 10.2201 11.6201 10.5001 11.2001 10.5001Z" fill="#8252a2"/>
</svg>
